<?xml version="1.0" encoding="utf-8"?>
<!-- Generator: Adobe Illustrator 15.1.0, SVG Export Plug-In . SVG Version: 6.00 Build 0)  -->
<!DOCTYPE svg PUBLIC "-//W3C//DTD SVG 1.1//EN" "http://www.w3.org/Graphics/SVG/1.1/DTD/svg11.dtd">
<svg version="1.1" id="Layer_1" xmlns="http://www.w3.org/2000/svg" xmlns:xlink="http://www.w3.org/1999/xlink" x="0px" y="0px"
	 width="69.82px" height="26.426px" viewBox="0 0 69.82 26.426" enable-background="new 0 0 69.82 26.426" xml:space="preserve">
<g>
	<g>
		<path d="M4.806,16.141l-0.028-0.065l-0.066,0.065H3.057l-0.055-0.146l0.355-1.233L3.45,14.66l1.017-0.112l0.207-0.103l0.112-0.226
			l1.291-4.453l-0.062-0.18L4.991,9.463L4.959,9.362l0.459-1.485h0.027l0.006,0.091l0.041-0.136L5.491,7.72l0.073-0.045h3.967
			l0.092,0.102L9.7,7.72h2.479l0.615,0.18l0.469,0.53l0.041,0.507l-0.11,0.572l-0.03,0.361l-0.206,0.708l-0.277,0.475l-0.332,0.28
			l-0.369,0.226l-0.039,0.135l-0.077,0.124l0.181-0.068l0.039,0.08l0.078-0.035l0.043,0.035h0.088l0.078,0.056l0.214,0.102
			l0.268,0.315l0.125,0.405l0.006,0.496l-0.235,0.812l-0.222,0.463l-0.041,0.043l-0.062,0.09l-0.04,0.047l-0.167,0.294l-0.563,0.793
			l-0.613,0.294l-0.951,0.156H7.851l-1.41-0.057H4.806V16.141z M3.079,15.949h0.033l0.043-0.057H3.128L3.079,15.949z M4.49,15.031
			h0.062l0.086-0.057H4.541L4.49,15.031z M5.131,8.867l0.29-0.786L5.147,8.81L5.131,8.867z M5.335,9.114h0.033l0.013-0.045H5.349
			L5.335,9.114z M5.635,7.968l0.026-0.091L5.615,7.923L5.635,7.968z M4.873,15.7l0.066-0.111l0.312-0.502l0.002-0.169l0.092-0.102
			l0.045-0.158H5.328l-0.046,0.158l-0.076,0.058l-0.029,0.101H5.116l-0.019-0.057l-0.04-0.044l0.015-0.058l-0.034-0.09l-0.104,0.248
			l-0.092,0.103l-0.104,0.466h0.095L4.873,15.7z M4.742,15.848h0.034l0.014-0.045L4.742,15.848z M5.58,8.968h0.068l0.013-0.045
			H5.593L5.58,8.968z M5.257,14.366l0.049-0.046L5.301,14.22L5.257,14.366z M5.284,14.715l0.047-0.158l0.071-0.033l0.055-0.102
			h0.238l0.029-0.102H5.521l-0.062-0.068l-0.105,0.113H5.318l-0.085,0.292L5.284,14.715z M5.081,15.848l0.04-0.045l-0.045-0.057
			L5.06,15.803L5.081,15.848z M5.689,13.205h0.183l0.062-0.213H5.907L5.84,13.104L5.77,13.183l-0.02-0.191l-0.046-0.125
			l-0.083,0.125l0.019,0.056H5.7L5.689,13.205z M5.594,14.163h0.053l0.051-0.058h0.088l0.019,0.058l0.05-0.058l0.024-0.09H5.812
			L5.77,13.881l-0.08,0.135L5.594,14.163z M5.714,13.656h0.055l0.068-0.146l-0.145,0.101L5.714,13.656z M5.801,12.495l0.048-0.045
			l0.028-0.101l-0.048,0.045L5.801,12.495z M5.789,12.653h0.026l0.003-0.101L5.789,12.653z M5.785,13.802l0.013-0.045H5.766
			L5.785,13.802z M6.149,9.521l0.03-0.102H6.153L6.139,9.463L6.149,9.521z M5.883,12.653H5.91l0.064-0.101H5.912L5.883,12.653z
			 M5.546,15.803h0.027l0.016-0.057L5.546,15.803z M6.105,12.495h0.087l0.137-0.146l-0.048-0.045l0.046-0.159H6.233L6.222,12.09
			H6.168l0.016-0.045h0.08L6.31,12.09h0.153l0.015-0.045H6.451l0.023-0.079l0.229,0.112l-0.027-0.09l-0.078-0.057L6.536,11.75
			l0.043-0.056l0.029-0.102l-0.073,0.045H6.441l0.063-0.225l-0.109,0.079l-0.07-0.056l-0.018-0.079l0.059-0.068H6.278l-0.147,0.507
			l0.019,0.035l0.119-0.08l0.014,0.045L6.21,11.83l-0.056,0.101l-0.095,0.113L6.017,12.19l-0.066,0.113h0.062l-0.015,0.045
			l0.082,0.045L6.105,12.495z M6.265,9.87l0.103-0.147l0.024,0.102h0.129l0.134-0.158h0.062L6.73,9.623H6.668l-0.08,0.044H6.533
			l0.026-0.09L6.775,9.51L6.91,9.318L6.97,9.115L7.05,8.979L6.965,8.922L6.947,8.867L6.79,8.968l0.009-0.101H6.691L6.598,9.024
			L6.463,9.069l-0.024,0.09h0.061L6.469,9.261l0.005,0.102L6.422,9.419L6.35,9.666L6.211,9.87H6.265z M6.19,10.635l0.062-0.101
			L6.3,10.376l-0.017-0.055l-0.124,0.213L6.19,10.635z M5.999,12.856l0.183-0.203H6.119l-0.018-0.057l-0.061,0.113L5.999,12.856z
			 M6.356,10.275l0.085-0.102h0.127l-0.004-0.102H6.502l0.053-0.056l0.024-0.09H6.513l-0.081,0.09L6.4,10.127l-0.028-0.112
			l-0.046,0.158L6.356,10.275z M6.27,11.086h0.065l0.046-0.158H6.315L6.27,11.086z M6.641,9.204L6.624,9.261L6.606,9.204H6.641z
			 M6.428,11.379l0.132-0.147l0.073-0.146l-0.088-0.113L6.47,11.12L6.428,11.379z M6.381,12.495l0.015-0.045H6.361L6.381,12.495z
			 M6.548,10.782h0.114l0.079-0.135L6.696,10.5L6.52,10.714L6.548,10.782z M9.769,14.559l0.685-0.125l0.504-0.248l0.334-0.383
			l0.146-0.496l0.004-0.315l-0.077-0.249l-0.316-0.191l0.019-0.057h-0.144l-0.256-0.045l-2.396-0.101H7.093l-0.287,0.135
			l-0.563,1.939l0.048,0.136H9.769z M6.766,10.422l0.09-0.101l0.106-0.045l0.042-0.147l0.095-0.112l0.039-0.249L7.09,9.723
			l0.09-0.304L7.088,9.521l0.06-0.203L7.24,9.205h0.035L7.288,9.16L7.234,9.114l-0.035-0.09L7.148,8.945L7.031,9.114L6.925,9.362
			l0.074-0.045h0.04L6.811,9.666h0.06l0.02,0.08l-0.214,0.1l-0.018,0.226l-0.03,0.102l0.021,0.045l0.074-0.045l-0.079,0.135
			L6.766,10.422z M6.563,12.495h0.062l0.028-0.101l-0.058-0.056l0.083-0.147l-0.076,0.056l-0.025-0.079l-0.09,0.102L6.563,12.495z
			 M6.794,9.069L6.781,9.114L6.76,9.069H6.794z M6.716,11.131l0.014-0.045H6.695L6.716,11.131z M6.672,11.492h0.057l0.05-0.056
			H6.717L6.672,11.492z M6.809,10.579h0.093l-0.064-0.101L6.809,10.579z M6.369,15.994l0.013-0.045H6.349L6.369,15.994z
			 M7.103,8.867h0.054L7.146,8.81H7.12L7.103,8.867z M7.295,8.81h0.027l0.213-0.729L7.295,8.81z M7.349,9.159l0.088-0.044
			L7.405,8.968H7.344L7.294,9.024L7.349,9.159z M7.96,11.334l0.091-0.102h2.413l0.494-0.078l0.427-0.282l0.228-0.406l0.037-0.316
			l-0.083-0.248l-0.312-0.214l-0.758-0.113H7.803L7.614,9.689l-0.405,1.397l0.051,0.146l0.715,0.057L7.96,11.334z M7.537,12.145
			l0.05-0.055H7.553L7.537,12.145z M7.696,12.247l0.043-0.056l0.042-0.146L7.77,11.989l-0.092,0.203L7.696,12.247z M7.33,15.803
			h0.027l0.016-0.057H7.346L7.33,15.803z M7.774,11.91l0.07-0.079l-0.053-0.035l-0.037,0.035L7.774,11.91z M7.612,15.031
			l0.045-0.157l-0.046,0.044L7.612,15.031z M7.943,11.886l0.05-0.056H7.958L7.943,11.886z M7.616,15.746L7.629,15.7h-0.06
			L7.616,15.746z M8.086,12.044l0.043-0.056l0.045-0.158H8.148l-0.08,0.135L8.086,12.044z M9.006,7.923H9.04L9.019,7.877
			L9.006,7.923z M8.324,14.761h0.035l0.03-0.102l-0.053,0.057L8.324,14.761z M8.524,15.031H8.55l-0.01-0.057H8.507L8.524,15.031z
			 M10.23,8.081h0.026l0.051-0.056h-0.033L10.23,8.081z M10.361,8.024l0.05-0.056L10.39,7.923L10.361,8.024z M9.452,15.893h0.027
			l0.013-0.045L9.452,15.893z M10.837,15.589h0.033l0.041-0.046L10.837,15.589z M11.543,11.796l0.028-0.101h-0.034l-0.016,0.056
			L11.543,11.796z M11.643,11.334h0.066l0.075-0.045L11.76,11.21L11.643,11.334z M11.65,14.761l0.045-0.045l-0.017-0.057
			l0.047-0.045l0.053-0.091l0.14-0.157l0.061-0.203l0.017-0.147l0.09-0.312H11.97l0.001,0.156l-0.146,0.103l0.03-0.103l-0.044-0.058
			l0.142-0.236l0.188-0.056l0.095-0.17l-0.042-0.135h-0.062l-0.073,0.26h-0.088l-0.14,0.146l-0.176,0.35l0.14,0.1l-0.14,0.159
			l-0.108,0.046l0.015-0.046l-0.067-0.259l-0.059,0.202l0.018,0.057l-0.042,0.146l0.044,0.169l0.092-0.057h0.096l-0.023,0.078
			l-0.044,0.057l-0.042,0.146L11.65,14.761L11.65,14.761z M11.73,11.03l0.09-0.147h-0.046l-0.062,0.068L11.73,11.03z M11.509,13.916
			l0.053-0.057l-0.053-0.059l-0.017,0.059L11.509,13.916z M11.609,13.364l0.043-0.057l0.013-0.044h-0.062l0.021,0.044L11.609,13.364
			z M11.571,13.702h0.055l0.176-0.191h0.028l0.118-0.125l0.072-0.438h-0.056l-0.092,0.316l0.025,0.078l-0.117,0.125l-0.069,0.124
			l-0.029-0.079h-0.056L11.571,13.702z M11.771,11.638l0.091-0.102l0.101-0.045l-0.021-0.112h-0.095L11.771,11.638z M11.845,11.289
			H11.9l0.058-0.203L11.845,11.289z M11.971,10.016l0.099-0.035l0.016-0.055h-0.034L11.971,10.016z M11.907,11.008l0.071-0.08h0.025
			l0.118-0.101l-0.027-0.09l-0.191,0.124L11.907,11.008z M11.991,10.579l0.059-0.203l-0.105,0.158L11.991,10.579z M11.98,10.174
			l0.047-0.045l0.017-0.057l-0.05,0.057L11.98,10.174z M11.928,12.145h0.032l0.089-0.101l-0.001-0.113h-0.024l-0.033,0.113
			L11.928,12.145z M12.144,11.187h0.026l0.029-0.101h-0.026L12.144,11.187z M12.257,11.334l0.05-0.045H12.27L12.257,11.334z
			 M12.261,13.702h0.025l0.026-0.091l-0.04,0.045L12.261,13.702z"/>
		<path d="M12.737,16.096l-0.079,0.057l0.419-1.334l0.146-0.103l0.763-0.09l0.262-0.112l1.373-4.735l-0.056-0.225l-0.902-0.125
			l-0.006-0.168l0.46-1.484l0.14-0.157h3.514l0.042,0.157L18.329,9.34l-0.111,0.08l-0.835,0.112l-0.136,0.091L17.143,9.79
			l-1.346,4.633l0.043,0.157l0.896,0.146l-0.004,0.203l-0.336,1.164l-0.134,0.158H13.9l-0.011-0.059l-0.053,0.059h-1.105
			L12.737,16.096z M14.099,16.197h0.031l0.093-0.104l0.025-0.091h-0.096L14.099,16.197z M14.908,9.114l0.08-0.045h-0.035
			L14.908,9.114z M14.247,16.197l0.046-0.045l-0.017-0.059L14.247,16.197z M14.328,15.871l0.087-0.091l-0.11-0.08l-0.019,0.058
			L14.328,15.871z M14.419,15.6h0.034l0.051-0.057H14.47L14.419,15.6z M14.421,16.04h0.021l0.103-0.192h-0.066L14.421,16.04z
			 M14.971,14.975l0.133-0.156l0.118-0.079l-0.007-0.146l0.074-0.11l0.046-0.158l0.212-0.102l-0.043-0.158l0.019-0.057l-0.024-0.033
			l0.05-0.057l0.071,0.057l0.046-0.156h-0.061l0.02-0.158l-0.027-0.204H15.5l-0.063-0.055L15.6,13.25l0.054,0.068h0.068l0.045-0.158
			l-0.065-0.08l0.077-0.079l0.042-0.146h-0.06l-0.006-0.102l0.048-0.045l0.071-0.157h-0.087l0.072-0.248h-0.054l0.021,0.067
			l-0.173,0.203l-0.045-0.125l0.028-0.101h-0.062l0.068-0.147l0.034-0.112l0.097-0.102h0.105l-0.005,0.157h0.148l0.051-0.055
			l0.041-0.281l0.058-0.058l0.043,0.114l0.065-0.069l-0.03-0.225l0.157-0.541h-0.046l-0.006-0.192h-0.155l0.017-0.056l-0.082,0.056
			l0.03-0.112l-0.051-0.034l0.14-0.204l-0.145,0.102l0.017-0.056l-0.044-0.056l0.046-0.045h-0.12l-0.155,0.079l0.029,0.102
			l-0.105,0.113l0.048,0.067l-0.08,0.135l-0.047,0.158l0.031,0.101l-0.072,0.249h0.095l-0.074,0.259l0.117-0.079l-0.093,0.18h-0.088
			l-0.037,0.035H15.51l-0.03,0.112h0.066l-0.098,0.102l-0.085,0.203h0.094l-0.017,0.057l-0.081,0.045l-0.042,0.146h0.128
			l0.067-0.045l-0.079,0.159l-0.034,0.044l-0.021,0.146l0.018,0.057l-0.032,0.113l0.116,0.134l-0.143,0.159l0.004,0.102
			l-0.024,0.089L15.23,13.42l-0.062,0.091h-0.114l-0.104,0.146l-0.03,0.315l-0.024,0.088l-0.041,0.26l-0.133,0.248l0.029,0.102
			l-0.055,0.191l0.129,0.092l0.11-0.079L14.971,14.975z M15.495,13.656l-0.029,0.101l-0.044,0.058l0.005-0.156L15.495,13.656
			L15.495,13.656z M15.617,13.048h0.028l-0.033,0.113l-0.011-0.057L15.617,13.048z M16.145,9.599l-0.038-0.124l0.124-0.146
			l-0.104-0.067l0.083-0.146l0.043-0.146l-0.131,0.146h-0.06l-0.059,0.102l0.014,0.305L16.145,9.599z M15.836,11.549l0.04-0.022
			l-0.007,0.022H15.836z M15.998,11.436l-0.121,0.09l0.026-0.09H15.998z M16.558,10.433h0.061l0.046-0.157l0.089-0.102L16.84,9.88
			l-0.062,0.101h-0.062l-0.131,0.057l-0.05-0.157h-0.127l0.116-0.259l0.09-0.101l-0.048-0.046L16.43,9.622h-0.185l-0.089,0.304
			l-0.137,0.146h0.129l0.004,0.057l0.087,0.113l0.074-0.113h0.062l0.13-0.147l-0.056,0.193l0.104,0.045l0.036,0.104l-0.051,0.055
			L16.558,10.433z M16.03,10.275h0.026l0.028-0.102l-0.014-0.045L16.03,10.275z M15.89,12.946h0.025L15.902,12.9H15.87L15.89,12.946
			z M15.94,12.45l0.049-0.056l0.027-0.09l-0.05,0.045L15.94,12.45z M16.351,9.261l0.074-0.146h-0.152l-0.024,0.079L16.351,9.261z
			 M16.227,10.433l0.044-0.057h-0.027L16.227,10.433z M16.318,10.726l0.01,0.056l0.062-0.09h0.095l0.028-0.102l-0.034-0.112H16.39
			L16.318,10.726z M16.115,14.874l0.051-0.058l0.015-0.045L16.115,14.874z M16.628,9.261l0.046-0.045l-0.051-0.057l-0.016,0.057
			L16.628,9.261z M16.705,10.534h0.034l0.017-0.056h-0.033L16.705,10.534z M16.807,9.666h0.033l0.015-0.044h-0.062L16.807,9.666z
			 M16.97,9.622l-0.015,0.044l0.062-0.09l0.107-0.056l0.016-0.046h-0.062l-0.002-0.18l-0.083,0.102L16.97,9.622z M17.374,8.024
			h0.033l0.014-0.045L17.374,8.024z"/>
		<path d="M22.532,16.197l-0.046,0.045h-0.062L22.4,16.141l0.375-1.302l0.104-0.078l0.543-0.056l0.077-0.102l0.039-0.137
			l-0.287-0.666L23.188,13.7l-0.395-0.744l-0.523-0.677l-0.174-0.124l-1.159,0.71l-0.021-0.068l-0.108,0.147l-0.194,0.135
			l-0.096,0.169l-0.343,1.173l0.062,0.19l0.958,0.146l0.022,0.102l-0.367,1.279l-0.083,0.103h-3.662l-0.031-0.103l0.369-1.279
			l0.105-0.111l0.765-0.113l0.295-0.111l0.224-0.607l0.049-0.057l-0.016-0.059l1.098-3.786L20,9.644l-0.151-0.102l-0.782-0.124
			L19.064,9.26l0.459-1.484l0.163-0.191l1.839,0.09h0.872l-0.021,0.068l0.113-0.068h0.785l0.023,0.102l-0.473,1.529L22.72,9.442
			L21.75,9.554l-0.202,0.135l-0.534,1.848l0.037,0.147l3.724-2.231l0.124-0.146l0.051-0.181L24.79,9.025H24.64l-0.03-0.113
			l0.356-1.135l0.091-0.102h0.573L25.619,7.72h0.033l0.04-0.045h2.467l-0.002,0.147l-0.459,1.483l-0.12,0.157L26.98,9.521h-0.216
			l-0.11,0.056L26.188,9.69l-2.339,1.308l-0.07,0.078l-0.049,0.169l0.63,0.79l0.75,1.115l0.747,1.387l0.245,0.18l0.534,0.045
			l0.03,0.104l-0.236,0.824l-0.062,0.112h0.027l-0.122,0.417l-0.118,0.079h-3.533L22.532,16.197z M18.33,15.848h0.034l-0.021-0.045
			h-0.025L18.33,15.848z M18.6,14.816l0.056-0.103l-0.04,0.045L18.6,14.816z M18.418,16.197l0.11-0.078l0.022-0.079l-0.066,0.044
			h-0.062L18.418,16.197z M18.623,15.064h0.026l-0.016-0.045L18.623,15.064z M18.578,15.645l0.071-0.056l0.013-0.046h-0.053
			L18.578,15.645z M18.909,13.961h0.035l0.029-0.102l-0.085,0.057L18.909,13.961z M19.005,14.468h0.062l0.059-0.202l-0.229,0.066
			l-0.026,0.09l0.076-0.057l-0.016,0.057l0.109-0.079L19.005,14.468z M18.875,14.918l0.063-0.102l-0.087,0.021L18.875,14.918z
			 M19.143,14.32l0.137-0.055l0.066-0.113l0.126,0.056l0.215-0.113l-0.028-0.089l0.04-0.045h0.061l0.076-0.259l0.055-0.091
			l0.017-0.056l0.132-0.226l-0.004-0.124l-0.057,0.102l-0.063,0.079l0.024,0.101l-0.197,0.08l-0.088,0.135l-0.089,0.101
			l-0.018,0.057l0.124-0.102L19.6,14.007h-0.034l-0.063,0.101h-0.061l-0.004-0.101L19.37,14.05l0.013-0.044l0.148-0.204
			l-0.071,0.058l-0.172,0.058l-0.104,0.11l0.022,0.08l0.083-0.102l-0.029,0.102L19.143,14.32z M19.378,14.761h0.17l0.192-0.428
			l0.001-0.124l0.064-0.102l-0.02-0.058l-0.06,0.113l-0.103,0.045l-0.059,0.112H19.47l-0.03,0.103l-0.046,0.045l-0.085-0.146
			l-0.024,0.203h-0.082l-0.057,0.078l0.018,0.057h0.115l-0.017,0.057l0.076-0.057L19.378,14.761z M19.147,14.816l0.062-0.103h-0.035
			L19.147,14.816z M19.366,13.645l0.114-0.068l0.049-0.169l0.081-0.136l0.033,0.136l0.048-0.158l-0.076-0.045l0.063-0.213h-0.096
			L19.52,13.07l0.035,0.135l-0.15,0.169l0.002,0.136L19.366,13.645z M19.643,14.366l0.021,0.067l-0.127,0.09l-0.04,0.135H19.47
			l-0.058-0.135L19.643,14.366z M19.749,12.743l0.047-0.045l0.061-0.203l-0.111,0.057l-0.06,0.067l0.078,0.079L19.749,12.743z
			 M19.88,13.25h0.026l0.173-0.202l0.078-0.056l0.145-0.293l-0.014-0.045l0.019-0.057h0.061l0.027,0.091l0.151-0.293h-0.061
			l-0.04,0.045h-0.094l0.027-0.102h0.097l0.086-0.091l0.047,0.147h0.024l0.061-0.203l0.096-0.101l-0.047-0.158l-0.08,0.158
			l0.075-0.259l-0.083,0.101h-0.062l-0.045,0.158h-0.188l-0.061,0.202h-0.16l-0.242,0.203l0.002,0.226l-0.156,0.168h0.021
			l0.047-0.045h0.127l0.041-0.045l-0.032-0.101l0.062-0.102l0.104,0.068l-0.052,0.18h-0.033l-0.059,0.102l-0.218,0.102l-0.028,0.101
			l0.075-0.055l0.025,0.078l0.117-0.124l0.014,0.045l-0.043,0.055L19.88,13.25z M19.614,14.861h0.034l-0.021-0.045L19.614,14.861z
			 M19.729,13.859h-0.026l0.019-0.059L19.729,13.859z M19.758,13.453h0.028l0.013-0.044h-0.026L19.758,13.453z M19.883,12.281
			l0.161-0.136l0.031,0.102h0.06l0.053-0.056h0.088l0.058-0.203l0.146-0.169l-0.004-0.124l0.062-0.214h0.033l0.043-0.146
			l-0.075,0.045l0.03-0.101l0.04-0.046l-0.016,0.046l0.077-0.08l-0.088-0.067l-0.077,0.056l-0.008,0.147l-0.09,0.102l-0.079-0.124
			l-0.246,0.281l0.075,0.045h0.034l-0.002,0.147l0.066,0.045l-0.028,0.101l-0.043,0.057l-0.079-0.214L20,11.876L19.883,12.281z
			 M20.106,10.162H20.2l0.014-0.045l-0.048-0.045l-0.046,0.045L20.106,10.162z M20.124,10.726l0.016-0.045h-0.034L20.124,10.726z
			 M20.026,12.09h-0.034l0.084-0.057L20.026,12.09z M20.207,11.278h0.089l0.042-0.147l0.11-0.057l0.091-0.101h0.144l0.064-0.067
			l-0.042-0.159l-0.114,0.135H20.53l-0.011-0.056l0.075-0.045l0.021-0.079l-0.074-0.068l0.153-0.112l0.018,0.056l0.083-0.056
			l0.011-0.214l-0.144,0.113h-0.121l0.03-0.101l0.137-0.057l0.09-0.192l0.01-0.146L20.843,9.8l0.194,0.147l-0.019,0.067l0.069-0.035
			l0.045-0.157h-0.061L20.97,9.687l-0.118,0.079l0.055-0.191L20.85,9.496l-0.064,0.079l-0.018-0.056l-0.15,0.168l0.028,0.112
			l0.126-0.091l-0.022,0.08l-0.215,0.159l0.039,0.123l0.127-0.202h0.026l0.009,0.179l-0.107,0.067l-0.086,0.136L20.5,10.093
			l-0.065,0.067l-0.063,0.214l-0.046,0.046l-0.057,0.101l0.125-0.101l0.035,0.157l-0.061,0.204H20.32l0.042-0.259l-0.085,0.056
			l-0.042,0.147l0.038,0.101l-0.018,0.056l0.069,0.045l-0.013,0.045H20.23l-0.045,0.158L20.207,11.278z M20.305,9.87h0.033
			l0.028-0.103l-0.05,0.057L20.305,9.87z M20.27,10.321l0.049-0.057h-0.034L20.27,10.321z M20.193,13.307h0.061l0.062-0.213h-0.062
			L20.193,13.307z M20.378,11.831l-0.013,0.045l-0.013-0.045H20.378z M20.556,9.87l0.013-0.046l-0.02-0.057l-0.016,0.057
			L20.556,9.87z M20.281,12.889l0.06-0.09h-0.033L20.281,12.889z M20.481,11.988l0.077-0.057l-0.019-0.056h-0.06L20.481,11.988z
			 M20.456,12.799l0.05-0.056l-0.021-0.045L20.456,12.799z M20.549,11.751h0.051l0.19-0.338l-0.031-0.101l-0.116,0.078l-0.002,0.146
			l-0.044,0.057L20.549,11.751z M20.843,9.159l0.015-0.044h-0.021L20.843,9.159z M20.854,9.981h0.035l-0.021-0.055L20.854,9.981z
			 M20.798,11.244l0.125-0.057l0.007-0.112l-0.17,0.067L20.798,11.244z M20.802,10.974l0.049-0.045l0.043-0.146h-0.075
			L20.802,10.974z M21.229,7.923h0.033l0.05-0.056L21.229,7.923z M20.875,10.422h0.068l0.128-0.26l-0.024-0.056l-0.099,0.158
			l-0.078,0.057L20.875,10.422z M20.873,10.523h0.034l0.013-0.045L20.873,10.523z M21.075,9.61h0.062l0.044-0.034L21.163,9.52
			h-0.062L21.06,9.576L21.075,9.61z M21.582,8.081l0.093-0.112l-0.152,0.112H21.582z M21.315,9.204l0.013-0.045h-0.027L21.315,9.204
			z M23.186,11.537l0.027-0.101h-0.024l-0.015,0.044L23.186,11.537z M23.155,11.831h0.034l-0.024-0.035L23.155,11.831z
			 M22.814,15.949l-0.024-0.102l0.015-0.047H22.77l-0.042,0.146L22.814,15.949L22.814,15.949z M22.931,16.084h0.031l0.015-0.044
			L22.931,16.084z M22.999,15.848h0.034l-0.004-0.102L22.999,15.848z M23.446,12.596h0.061l0.015-0.044l-0.013-0.057l0.043-0.056
			l0.029-0.102l-0.078,0.056L23.446,12.596z M23.5,12.247h0.027l0.049-0.259l-0.062,0.102L23.5,12.247z M23.402,13.802h0.033
			l0.013-0.045L23.402,13.802z M23.233,15.645l0.017-0.056h-0.033L23.233,15.645z M23.689,11.876l0.012-0.045l-0.021-0.035
			l-0.011,0.035L23.689,11.876z M23.755,15.848l0.073-0.156h0.026l0.132-0.058l0.042,0.112l0.056-0.102l0.05-0.058l-0.082-0.046
			l0.186-0.521l0.014,0.045h0.068l0.039-0.045l-0.016-0.045l-0.002-0.158h-0.142l-0.005-0.103h-0.148l-0.041,0.045l-0.032-0.09
			l-0.209,0.183l-0.213,0.735l0.001,0.136l0.147-0.136l0.163-0.567h0.074l-0.221,0.625L23.755,15.848z M23.737,14.761h0.033
			l0.05-0.102l0.076-0.056l0.041-0.137l-0.131,0.057L23.737,14.761z M23.999,14.559l0.139-0.035l0.154-0.135l0.051-0.181h-0.061
			l-0.014-0.045l0.077-0.058l0.072-0.09l-0.001-0.156l0.018-0.059l-0.021-0.045l-0.087,0.159H24.28l0.017-0.058l0.02-0.156
			l0.141-0.091l0.029-0.101H24.46l-0.061,0.067l0.001-0.169h-0.066l-0.057,0.102l-0.04,0.044l-0.026,0.09l0.021,0.112l-0.044,0.159
			l-0.067,0.045l0.061-0.204L24.106,13.8l0.046-0.157H24L23.983,13.7l0.032,0.101l-0.018,0.059h-0.047l0.005,0.146l-0.027,0.103
			h-0.062l-0.082,0.281l0.245-0.123l0.056-0.104l0.141-0.059l-0.073,0.16l-0.061,0.202l-0.108,0.056L23.999,14.559z M24.099,14.027
			l-0.023,0.08l-0.089,0.102l-0.005-0.102L24.099,14.027z M24.139,14.816l-0.06,0.203h-0.06l0.059-0.203H24.139z M24.292,14.715
			l0.056-0.191H24.32l-0.04,0.137L24.292,14.715z M24.493,14.559h0.183l0.07-0.383l-0.239,0.123l0.073-0.248h-0.096l-0.076,0.057
			l0.004,0.103l0.045,0.058l-0.06,0.202h0.061L24.493,14.559z M24.524,13.702l0.05-0.057l-0.024-0.034h-0.031L24.524,13.702z
			 M24.645,14.423l-0.046,0.045h-0.062l0.075-0.045H24.645z M25.152,9.114h0.035l0.012-0.045L25.152,9.114z M24.784,14.604h0.021
			l0.047-0.045l-0.044-0.035L24.784,14.604z M24.918,14.32h0.097l0.076-0.055l-0.045-0.059h-0.033l-0.107-0.066L24.918,14.32z
			 M24.852,14.761h0.062l0.046-0.045l-0.078-0.057L24.852,14.761z M25.875,9.159h0.027l0.087-0.089h-0.027L25.875,9.159z
			 M25.99,9.576h0.028l0.031-0.113l-0.076,0.058L25.99,9.576z M26.921,9.306h0.032l0.014-0.045L26.921,9.306z M27.109,9.261h0.034
			l-0.019-0.057L27.109,9.261z"/>
		<path d="M27.216,14.874l0.103-0.113l1.105-0.135l0.194-0.112l0.137-0.238l0.869-2.998l0.044-0.035l-0.017-0.057l0.294-1.013
			l0.057-0.428l-0.091-0.102L29.165,9.53l0.044-0.056l0.029-0.101L29.104,9.53h-0.277l-0.028-0.112l0.494-1.608l0.117-0.079h8.812
			l0.037,0.146l-0.593,1.947l-0.112,0.112l0.066,0.044l-0.304,1.049l-0.128,0.157h-0.946l-0.042-0.133l0.167-0.993l-0.006-0.236
			l-0.056-0.203H31.63l-0.094,0.157l-0.458,1.465l0.04,0.192h2.174l0.204-0.214l0.192-0.384l0.044-0.056l0.095-0.327l0.104-0.079
			h0.797l0.029,0.102l-0.88,3.032l-0.136,0.146H32.91l-0.005-0.237l0.107-0.372l0.062-0.102L32.999,13l0.02-0.293l0.027-0.101
			h-0.094l0.029-0.102H32.92l-0.051,0.102h-2.105l-0.153,0.248l-0.47,1.625l0.039,0.19h4.479l0.231-0.168l0.362-0.53l0.018-0.056
			l0.155-0.305l0.238-0.541l0.104-0.124h1.041l0.001,0.225l-0.898,2.924l-0.134,0.158h-8.864l-0.072-0.078L27.216,14.874z
			 M28.721,15.543h0.031l0.135-0.466h-0.033L28.721,15.543z M29.449,9.159l0.013-0.044h-0.032L29.449,9.159z M28.918,15.7h0.033
			L28.948,15.6L28.918,15.7z M29.619,12.112l0.055-0.068l-0.059-0.102l-0.064,0.102L29.619,12.112z M29.647,11.831h0.033
			l-0.023-0.035L29.647,11.831z M29.54,14.061l0.078-0.055l0.084-0.293h-0.061l-0.115,0.281L29.54,14.061z M29.329,15.543
			l0.173-0.512h-0.061L29.329,15.543z M29.758,12.145l0.029-0.101h-0.054L29.758,12.145z M29.905,11.244l0.05-0.057L29.9,11.142
			H29.88L29.905,11.244z M29.913,11.03h0.021l0.048-0.045l-0.005-0.102h-0.021L29.913,11.03z M29.836,12.202l0.052-0.057
			l0.012-0.044l-0.046,0.044L29.836,12.202z M29.733,13.814l0.115-0.138l-0.043-0.112l-0.073,0.067L29.733,13.814z M29.875,12.304
			h0.062l0.017-0.057H29.89L29.875,12.304z M29.998,11.436l0.046-0.045l-0.017-0.057L29.998,11.436z M29.549,15.949l0.04-0.045
			h-0.026L29.549,15.949z M30.055,11.886h0.106l-0.028-0.18l-0.053,0.089l-0.068,0.035L30.055,11.886z M30.115,11.244h0.127
			l0.053-0.18l-0.118,0.079h-0.031L30.115,11.244z M30.055,12.799h0.065l0.042-0.146H30.07l-0.049,0.056L30.055,12.799z
			 M30.639,7.877h0.032l0.015-0.045L30.639,7.877z M29.763,15.7h0.025l-0.011-0.056L29.763,15.7z M30.14,12.506h0.032l0.033-0.112
			h-0.034L30.14,12.506z M30.282,12.552l0.133-0.158l0.043-0.147l0.063-0.102L30.5,12.101l0.034-0.112l0.111,0.056l0.028-0.102
			l0.051-0.056l0.024-0.09l0.07-0.146l0.002-0.101l-0.08,0.044l-0.032,0.113l-0.087,0.089h-0.061l0.04-0.045l0.025-0.089
			L30.5,11.593l-0.064-0.102l-0.059,0.102l-0.094,0.113l-0.025,0.089l0.157-0.168l0.062,0.168L30.385,12.1l-0.046,0.044l0.029-0.101
			h-0.094l-0.11,0.191l0.177,0.113L30.282,12.552z M30.196,12.101l0.107-0.158l-0.013-0.056l0.044-0.056h-0.061l-0.073,0.09
			L30.196,12.101z M30.308,10.692h0.061l0.03-0.102L30.308,10.692z M30.387,10.838h0.062l0.13-0.146h-0.061L30.387,10.838z
			 M30.33,11.549l0.093-0.113l0.099-0.192h-0.103L30.33,11.549z M30.572,9.779h0.062l0.067-0.113h-0.095L30.572,9.779z
			 M30.343,12.552h0.062l0.03-0.102L30.343,12.552z M30.622,9.937h0.088l0.018-0.056l-0.032-0.102L30.622,9.937z M30.544,11.436
			h0.034l0.057-0.102h-0.06L30.544,11.436z M30.663,11.142h0.028l-0.012-0.056L30.663,11.142z M30.688,11.244h0.062l0.03-0.102
			l-0.075,0.045L30.688,11.244z M30.761,10.692l0.049-0.057l-0.031-0.101l-0.028,0.101L30.761,10.692z M30.776,10.433l0.049-0.057
			l0.013-0.045l0.062-0.112h-0.062L30.776,10.433z M30.953,10.331l0.051-0.056H30.97L30.953,10.331z M30.845,11.751l0.09-0.101
			l0.028-0.101L30.845,11.751z M32.892,12.101h0.031l0.001-0.214l-0.062,0.08L32.892,12.101z M33.04,11.593h0.033l0.013-0.044
			h-0.031L33.04,11.593z M33.028,12.145h0.033l0.041-0.044h-0.028L33.028,12.145z M33.218,12.349l0.05-0.045l-0.02-0.057h-0.025
			L33.218,12.349z M33.495,11.886l0.179-0.293h-0.026l-0.101,0.113L33.39,11.83L33.495,11.886z M33.986,11.03l0.062-0.104L34,10.985
			L33.986,11.03z M34.267,11.436h0.025l0.015-0.045L34.267,11.436z M34.475,11.142h0.032l0.017-0.056h-0.067L34.475,11.142z
			 M36.414,9.159l0.074-0.044h-0.062L36.414,9.159z M36.812,7.979h0.054l0.017-0.056L36.812,7.979z M36.964,8.081l0.044-0.056
			l0.015-0.045h-0.026L36.964,8.081z M36.632,10.174l0.062-0.068l-0.02-0.079L36.632,10.174z M36.624,10.928h0.028l-0.015-0.045
			L36.624,10.928z M36.864,9.261l0.118-0.102h-0.088L36.864,9.261z M37.035,9.418h0.026l0.028-0.101l-0.044,0.056L37.035,9.418z
			 M37.089,9.114l0.046-0.045h-0.031L37.089,9.114z M37.199,10.928l0.046-0.045H37.21L37.199,10.928z M37.616,8.024h0.034
			l0.014-0.045H37.63L37.616,8.024z M37.252,10.534l0.05-0.056h-0.032L37.252,10.534z"/>
		<path d="M0,26.189l0.369-1.279l0.151-0.102h0.152L0.612,24.91h0.034l0.09-0.102l0.627-0.113l0.188-0.135l0.445-1.42l1.011-3.482
			l-0.181-0.123l-0.768-0.126L2.03,19.298l0.399-1.442l0.109-0.078h1.184l0.002,0.158h0.047l0.057-0.103h2.818l0.028,0.103
			l0.029-0.103H8.28l0.039,0.056h0.756l0.583,0.182l0.269,0.123l-0.027,0.104H9.96l0.058-0.104l0.018,0.059l0.104,0.09l0.01,0.059
			h0.106l0.106,0.957l0.059,0.519l-0.072,0.396l-0.202,0.697l-0.292,0.608l-0.499,0.554L8.921,22.42l-0.022-0.079H8.863
			l-0.042,0.146L8.34,22.678L7.864,22.78H7.736L7.45,22.836H3.666L3.485,23.04l-0.428,1.476l0.063,0.192L3.7,24.809l0.163,0.045
			h0.188l0.041,0.158l-0.34,1.178h-0.03l-0.036,0.123L3.55,26.335H0.005L0,26.189z M1.658,24.753H1.72L1.7,24.605L1.658,24.753z
			 M2.266,25.784l0.239-0.515l-0.021-0.043l0.046-0.158h0.094l0.046-0.158l-0.018-0.057l0.138-0.146h0.027l0.07-0.078l-0.05-0.136
			l0.153-0.228l0.092-0.058l0.081-0.278l-0.07-0.08l0.046-0.158H3.053l0.055-0.19l0.067-0.079l-0.202,0.102l0.093-0.181H2.998
			l0.029-0.102l0.053,0.057l0.083-0.146l0.123-0.079L3.14,22.973l0.021-0.078L3.144,22.68l0.07-0.091l-0.026,0.101h0.095l0.03-0.102
			H3.285l0.053-0.09H3.243l0.016-0.057l0.084-0.058l0.07-0.077l0.001,0.135l0.02,0.057l-0.057,0.191l0.001,0.09l0.037-0.033
			l0.209-0.723H3.57l-0.083-0.045H3.461l0.111-0.123l-0.06-0.17H3.452l-0.085,0.182l-0.033-0.102l-0.1,0.065L3.229,21.73l0.07-0.248
			L3.203,21.54L3.18,21.482l-0.146-0.123l0.054-0.192h0.139l-0.002,0.215h0.082l0.116-0.313l-0.012,0.158l-0.046,0.155l0.046,0.147
			l0.241-0.112l0.001,0.112l0.121-0.137l-0.095-0.066l0.027-0.102L3.63,21.166l0.081-0.156l0.073-0.046l0.084-0.078L3.729,20.83
			l0.017-0.057H3.78l0.013-0.045h-0.09l-0.018-0.058l0.142-0.216h-0.08l0.016-0.045l-0.024-0.078l0.127-0.066l-0.011-0.058
			l0.064-0.046l0.132-0.451H3.936l-0.07,0.059l-0.052-0.059l0.027-0.104H3.723l-0.085,0.295L3.588,19.96l0.019-0.056l-0.028-0.09
			l0.03-0.104l-0.032-0.103H3.513L3.422,19.71h0.122l-0.042,0.146H3.415l-0.056,0.191h0.054L3.517,19.9l0.001,0.113l-0.104,0.351
			H3.268L3.225,20.51l-0.08,0.137l0.018,0.08l0.11-0.08l-0.036,0.125l-0.221,0.181l0.063,0.057l-0.005,0.112l-0.04,0.044
			l-0.076,0.26l0.045,0.171l-0.123,0.19h0.062l0.177-0.216l0.02,0.06l-0.03,0.101H3.046l-0.067,0.146L2.9,21.934l0.119,0.078
			l0.001,0.113h0.065l0.117-0.191h0.271l-0.147,0.09l-0.029,0.104l-0.134,0.157l0.029-0.103l-0.01-0.057l-0.142,0.157H2.975
			l-0.013-0.058H2.875l-0.049,0.058l0.033,0.305l0.106-0.045l0.015,0.045l-0.232,0.168l-0.08,0.285H2.546l-0.083-0.138L2.5,22.779
			l-0.042-0.111l-0.105,0.111l-0.045,0.158l0.017,0.057L2.275,23.04H2.25l-0.051,0.058l0.021,0.043l0.022,0.315h0.034l0.021,0.067
			l-0.1,0.158L2.3,23.796l-0.026,0.101h-0.03L2.215,24h0.09l-0.033,0.109h0.06l0.016,0.047l-0.092,0.101l-0.073-0.045H2.12
			l-0.043,0.146l0.021,0.045l-0.047,0.158H2.01l-0.144,0.191l-0.118,0.057l0.12,0.146l-0.062,0.214h0.066l0.062-0.214l0.024-0.202
			l0.062-0.091h0.054l-0.053,0.091h0.122l0.214,0.103l0.048,0.181L2.3,25.169l-0.021,0.079L2.266,25.784z M1.893,24.357l0.051-0.057
			l0.013-0.047H1.862L1.893,24.357z M2.116,25.034l0.036-0.124H2.125L2.02,24.854l-0.027,0.092L2.116,25.034z M1.971,25.984
			l0.059-0.2l-0.107,0.2H1.971z M2.111,25.169h0.061l0.019-0.058H2.129L2.111,25.169z M2.063,26.088H2.09l0.015-0.044H2.075
			L2.063,26.088z M2.464,24.605l-0.05,0.057H2.285l0.238-0.26L2.521,24.57l0.1-0.111l-0.005-0.102h0.048l-0.005,0.156L2.616,24.66
			l-0.08,0.091l-0.048-0.045L2.445,24.74l0.003,0.012H2.422l0.023-0.012L2.464,24.605z M2.475,23.098l-0.025,0.09H2.417l0.025-0.09
			H2.475z M2.593,23.299l-0.038,0.045H2.492l0.042-0.045H2.593z M2.893,19.354h0.031l0.018-0.056L2.893,19.354z M2.665,22.441H2.72
			l0.062-0.215L2.665,22.441z M2.682,22.689l0.043-0.057L2.71,22.589L2.682,22.689z M2.811,22.127l0.106-0.045H2.824L2.811,22.127z
			 M2.902,23.098l-0.094,0.09l-0.035-0.09H2.902z M3.369,18.25l0.019-0.059H3.365L3.369,18.25z M3.23,19.004h0.061l0.175-0.551
			H3.371L3.23,19.004z M3.319,19.354h0.086l-0.018-0.146l0.075-0.056l0.015-0.047L3.27,19.219L3.319,19.354z M3.119,21.788
			l-0.026,0.09H3.066l0.013-0.045L3.119,21.788z M3.001,22.938l0.041-0.045h0.034l-0.072,0.248l-0.047,0.045l0.058-0.19
			L3.001,22.938z M3.219,20.934l-0.012,0.031H3.182l0.024-0.089L3.219,20.934z M3.419,19.004l0.144-0.551H3.526L3.419,19.004z
			 M3.309,20.831H3.282l0.042-0.058L3.309,20.831z M3.403,19.455h0.034l0.043-0.057L3.403,19.455z M3.311,21.123H3.284l0.017-0.057
			L3.311,21.123z M3.485,19.501h0.033l0.013-0.046H3.499L3.485,19.501z M3.526,20.615l-0.045,0.158H3.413L3.4,20.729L3.526,20.615z
			 M3.517,20.413l-0.093,0.101l0.064-0.101H3.517z M3.706,18.25h0.027l0.09-0.102H3.735L3.706,18.25z M3.337,21.688h0.026
			l0.016-0.056H3.354L3.337,21.688z M3.551,19.32l0.155-0.067H3.618L3.551,19.32z M3.87,17.99l0.084-0.057l0.023-0.078L3.86,17.934
			L3.87,17.99z M3.546,21.27l-0.051,0.059l0.019-0.059H3.546z M3.688,20.965H3.661l0.01-0.031L3.688,20.965z M3.596,21.936
			l0.044-0.058l0.013-0.045H3.625L3.596,21.936z M3.911,19.501h0.062l0.013-0.046l-0.011-0.057L3.911,19.501z M3.968,19.816
			l-0.013,0.045l-0.047,0.045l0.013-0.045L3.968,19.816z M3.851,20.729h0.032l0.059-0.19l0.138-0.079l-0.042-0.045L3.888,20.47
			L3.851,20.729z M3.941,20.934l0.03-0.103H3.944l-0.042,0.045L3.941,20.934z M3.958,20.268L4,20.211l0.047-0.158l-0.044,0.057
			L3.958,20.268z M3.99,20.674h0.06l0.019-0.059L3.99,20.674z M4.12,21.573h3.237L7.98,21.45l0.401-0.203l0.332-0.371l0.16-0.553
			L8.77,19.962l-0.188-0.19L8.08,19.613H4.6l-0.135,0.158l-0.45,1.556l0.003,0.181L4.12,21.573z M4.415,19.298H4.45l0.026-0.091
			H4.441L4.415,19.298z M6.396,19.061l0.016-0.057l0.113-0.551l-0.168,0.551L6.396,19.061z M6.652,18.295H6.72L6.699,18.25
			L6.652,18.295z M7.701,22.387h0.034l0.014-0.046H7.714L7.701,22.387z M7.928,22.441H7.96l0.02-0.057L7.928,22.441z M8.473,22.544
			l0.014-0.045H8.392L8.473,22.544z M8.551,22.184l0.019-0.057H8.5L8.551,22.184z M8.78,21.066h0.095l0.057-0.104h0.032
			l-0.002,0.104H9.05l0.03-0.104l0.238-0.146v-0.18l-0.227,0.258l0.004-0.168l-0.134,0.058l-0.022-0.058H8.85L8.822,20.83
			l-0.091,0.104l0.051,0.03L8.78,21.066z M8.681,22.341l0.048-0.057H8.697L8.681,22.341z M9.173,18.295h0.034L9.186,18.25
			L9.173,18.295z M9.386,18.396l0.027-0.104L9.369,18.34L9.386,18.396z M9.033,21.427h0.095L9.104,21.35L9.033,21.427z
			 M9.107,21.167l0.08-0.156l-0.093,0.067L9.107,21.167z M9.244,20.514l0.083-0.101l0.043-0.146H9.315L9.244,20.514z M9.426,20.514
			h0.027l0.05-0.056H9.47L9.426,20.514z M9.747,18.295L9.76,18.25H9.733L9.747,18.295z M9.583,20.514h0.055l-0.038-0.056
			L9.583,20.514z M9.77,20.053l0.044-0.033H9.78L9.77,20.053z"/>
		<path d="M9.373,24.91l0.102-0.112l1.104-0.136l0.195-0.112l0.136-0.237l0.87-2.998l0.044-0.031l-0.018-0.057l0.294-1.016
			l0.057-0.429l-0.092-0.103l-0.744-0.111l0.043-0.059l0.029-0.103l-0.137,0.157h-0.274l-0.028-0.111l0.396-1.432l0.116-0.08h8.811
			l0.04,0.146l-0.495,1.77l-0.114,0.113l0.068,0.045l-0.303,1.049l-0.128,0.158H18.4l-0.042-0.137l0.165-0.992l-0.005-0.236
			l-0.058-0.201h-4.675l-0.093,0.156l-0.459,1.467l0.039,0.189h2.176l0.203-0.214l0.193-0.383l0.043-0.058l0.095-0.326l0.104-0.079
			h0.797l0.031,0.101l-0.879,3.033L15.9,23.691h-0.83l-0.006-0.235l0.105-0.372l0.063-0.102l-0.077,0.058l0.018-0.294l0.029-0.102
			H15.11l0.03-0.103h-0.062l-0.05,0.103h-2.107l-0.151,0.248l-0.473,1.621l0.039,0.192h4.479l0.229-0.17l0.363-0.529l0.017-0.057
			l0.155-0.306l0.238-0.541l0.104-0.123h1.041l0.002,0.225l-0.899,2.926l-0.133,0.157H9.068L8.997,26.21L9.373,24.91z
			 M10.997,25.158h0.034l0.013-0.047H11.01L10.997,25.158z M11.604,19.195l0.013-0.045h-0.034L11.604,19.195z M11.074,25.739h0.034
			l0.116-0.525L11.074,25.739z M11.774,22.148l0.054-0.066l-0.058-0.104l-0.063,0.104L11.774,22.148z M11.802,21.867h0.035
			l-0.023-0.034L11.802,21.867z M11.695,24.1l0.077-0.058l0.085-0.292h-0.062l-0.114,0.28L11.695,24.1z M11.604,25.158l0.054-0.09
			h-0.062L11.604,25.158z M11.914,22.184l0.028-0.102H11.89L11.914,22.184z M12.06,21.281l0.051-0.057l-0.056-0.045h-0.021
			L12.06,21.281z M12.069,21.066h0.02l0.046-0.045l-0.004-0.104h-0.02L12.069,21.066z M11.991,22.239l0.051-0.056l0.015-0.048
			l-0.05,0.048L11.991,22.239z M11.889,23.852l0.112-0.135l-0.042-0.113l-0.072,0.067L11.889,23.852z M12.031,22.341h0.06
			l0.018-0.057h-0.062L12.031,22.341z M12.153,21.473l0.046-0.046l-0.017-0.056L12.153,21.473z M11.705,25.984l0.04-0.045h-0.027
			L11.705,25.984z M12.212,21.923h0.107l-0.028-0.18l-0.054,0.09l-0.07,0.034L12.212,21.923z M12.27,21.281h0.128l0.053-0.182
			l-0.118,0.08h-0.035L12.27,21.281z M12.211,22.836h0.067l0.042-0.146h-0.094l-0.053,0.058L12.211,22.836z M12.695,18.092h0.035
			l0.013-0.045L12.695,18.092z M11.917,25.739h0.028l0.109-0.479L11.917,25.739z M12.296,22.544h0.033l0.032-0.114h-0.033
			L12.296,22.544z M12.438,22.589l0.134-0.159l0.042-0.146l0.064-0.101l-0.022-0.048l0.033-0.112l0.11,0.059l0.03-0.104l0.05-0.058
			l0.026-0.09l0.069-0.146l0.002-0.102l-0.081,0.046l-0.032,0.111l-0.087,0.09h-0.062l0.041-0.045l0.025-0.093l-0.129-0.063
			l-0.065-0.104L12.53,21.63l-0.093,0.111l-0.027,0.09l0.158-0.168l0.059,0.168l-0.089,0.305l-0.046,0.048l0.03-0.104H12.43
			l-0.109,0.189l0.176,0.113L12.438,22.589z M12.353,22.139l0.104-0.158l-0.011-0.058l0.045-0.056H12.43l-0.073,0.09L12.353,22.139z
			 M12.463,20.729h0.062l0.028-0.102L12.463,20.729z M12.543,20.876h0.062l0.131-0.146h-0.062L12.543,20.876z M12.485,21.586
			l0.093-0.113l0.096-0.189h-0.101L12.485,21.586z M12.728,19.816h0.061l0.067-0.113h-0.095L12.728,19.816z M12.499,22.589h0.062
			l0.029-0.103L12.499,22.589z M12.777,19.975h0.088l0.015-0.058l-0.029-0.101L12.777,19.975z M12.7,21.473h0.034l0.057-0.102H12.73
			L12.7,21.473z M12.818,21.182h0.028l-0.013-0.059L12.818,21.182z M12.843,21.281h0.062l0.029-0.102l-0.073,0.045L12.843,21.281z
			 M12.917,20.729l0.049-0.056l-0.028-0.104l-0.03,0.104L12.917,20.729z M12.93,20.47l0.051-0.057l0.013-0.045l0.062-0.112h-0.062
			L12.93,20.47z M13.109,20.368l0.05-0.058h-0.034L13.109,20.368z M13,21.788l0.091-0.103l0.029-0.102L13,21.788z M15.048,22.139
			h0.034l0.001-0.216l-0.062,0.079L15.048,22.139z M15.195,21.632h0.033l0.013-0.046h-0.033L15.195,21.632z M15.183,22.184h0.033
			l0.04-0.045H15.23L15.183,22.184z M15.374,22.387l0.048-0.046l-0.019-0.057h-0.026L15.374,22.387z M15.65,21.923l0.18-0.291
			h-0.025l-0.102,0.111l-0.157,0.124L15.65,21.923z M16.142,21.066l0.062-0.104l-0.05,0.059L16.142,21.066z M16.423,21.473h0.028
			l0.013-0.046L16.423,21.473z M16.628,21.182h0.035l0.019-0.059h-0.068L16.628,21.182z M18.57,19.195l0.074-0.045h-0.062
			L18.57,19.195z M18.869,18.191h0.054l0.019-0.057L18.869,18.191z M19.021,18.295l0.044-0.057l0.013-0.047H19.05L19.021,18.295z
			 M18.789,20.211l0.062-0.066l-0.019-0.08L18.789,20.211z M18.778,20.965h0.027l-0.015-0.045L18.778,20.965z M19.021,19.298
			l0.117-0.103H19.05L19.021,19.298z M19.191,19.455h0.024l0.029-0.102l-0.042,0.056L19.191,19.455z M19.246,19.15l0.046-0.045
			h-0.033L19.246,19.15z M19.354,20.965l0.047-0.045h-0.034L19.354,20.965z M19.672,18.238h0.035l0.015-0.047h-0.035L19.672,18.238z
			 M19.407,20.57l0.05-0.057h-0.033L19.407,20.57z"/>
		<path d="M18.753,25.93l0.373-1.177l0.111-0.078h0.33l0.024,0.078l0.109-0.123h0.46l0.097-0.06l0.184-0.043l0.14-0.202l1.334-4.599
			l-0.144-0.138l-1.028-0.112L20.7,19.32l0.374-1.354l0.156-0.11l1.408,0.056h3.925l0.416,0.057h0.305l-0.014,0.046l-0.05,0.057
			l-0.045,0.146l0.077-0.056l0.026-0.093l0.11-0.123l1.05,0.183l0.643,0.271l0.414,0.465l0.079,0.084l-0.173,0.354l0.026,0.079
			l-0.02,0.056l0.116,0.045l-0.046,0.158h0.114l0.111,0.36l0.044,0.36l-0.021,0.078l0.038,0.146l-0.072,0.574l-0.089-0.092
			l-0.068,0.236h0.094l0.071-0.057l-0.05,0.102l-0.117,0.078l-0.111,0.385h0.062l0.093-0.203l0.025,0.103l-0.2,0.339l0.051,0.057
			l-0.016,0.059H29.35l-0.015,0.045l0.075,0.089l-0.289,0.812l-0.306,0.61l-0.452,0.675l-0.363,0.338l-0.021-0.077l-0.07,0.077
			l0.021,0.068l-0.13,0.09l-0.233,0.203l-0.911,0.795l-0.624,0.19l-0.562,0.078l-0.443,0.057h-5.603l-0.698-0.057L18.753,25.93z
			 M19.433,25.136h0.033l-0.021-0.045H19.42L19.433,25.136z M19.648,25.236h0.033l0.027-0.103h-0.033L19.648,25.236z M20.057,24.989
			h0.033l-0.018-0.056L20.057,24.989z M20.068,26.009l0.013-0.045l-0.018-0.057l-0.019,0.057L20.068,26.009z M21.083,24.989h0.15
			l-0.013-0.191l0.061-0.067l0.055-0.19h-0.061l-0.001-0.135l0.108-0.123l-0.028,0.101l0.043,0.157h0.089l0.077-0.079l-0.061-0.078
			l0.015-0.046l-0.079-0.079l0.104-0.226l0.019-0.058l0.105-0.156l0.085-0.293l-0.005-0.103l0.077-0.146h0.06l0.047-0.158
			l-0.05-0.158h-0.298l-0.104,0.158l-0.074,0.26l-0.021,0.18l-0.054,0.068l-0.024,0.091l-0.063,0.101l-0.021-0.045l-0.108,0.045
			l0.03-0.101h0.065l0.073-0.112l-0.004-0.125l0.017-0.057l-0.004-0.102l-0.134,0.156l-0.175,0.112l-0.118,0.271l0.002,0.138
			l-0.167,0.337l0.048,0.046l-0.018,0.249h0.128l-0.029,0.1l0.007,0.045l-0.046,0.16l0.268-0.215l0.116,0.055l-0.127,0.16
			L21.083,24.989z M20.84,24.57h-0.025l0.021-0.076L20.84,24.57z M20.93,24.076l0.028-0.102h0.108l-0.042,0.146l-0.054,0.112
			l0.011-0.157L20.93,24.076L20.93,24.076z M20.708,26.109l0.028-0.103l-0.05,0.058L20.708,26.109z M21.295,23.118h0.021l0.1-0.113
			l0.005-0.134l-0.08,0.089L21.295,23.118z M21.627,23.118h0.121l-0.03,0.102l-0.114,0.306l-0.028,0.191l0.011,0.057l-0.027,0.103
			H21.38l0.113-0.203l0.042-0.146h0.067l-0.006-0.305L21.627,23.118z M21.61,22.757h0.033l0.024-0.089l-0.049,0.057L21.61,22.757z
			 M22.135,20.809l0.186-0.474h0.062l0.029-0.103l-0.081-0.045l0.042-0.146l-0.106,0.046l-0.123,0.192l0.018,0.056l-0.07,0.056
			l0.025-0.203h-0.047l-0.101,0.203l-0.073,0.045h0.136l-0.008,0.26L22.135,20.809z M21.809,22.746l0.16-0.182l0.179-0.403
			l-0.074,0.045l-0.026-0.079l0.114-0.227l-0.074,0.045L22.04,21.9l-0.073,0.045l0.012,0.057l-0.067,0.046h-0.06l-0.078,0.271
			l0.007,0.092l0.113-0.202l0.026,0.11l-0.135,0.326L21.809,22.746z M22.047,19.174l0.041-0.046H22.06L22.047,19.174z
			 M22.107,19.273h0.024l0.018-0.057h-0.026L22.107,19.273z M22.277,18.316h0.116l-0.036-0.135L22.277,18.316z M21.956,22.916
			l0.029-0.104h-0.026l-0.017,0.059L21.956,22.916z M22.182,21.833l0.064-0.226l-0.09,0.102h-0.061l-0.019,0.059L22.182,21.833z
			 M22.425,19.736l0.029-0.103L22.41,19.51l-0.102,0.113L22.425,19.736z M22.288,19.996h0.028l-0.011-0.057L22.288,19.996z
			 M22.577,18.216l0.016-0.056l-0.047-0.045l-0.013,0.045L22.577,18.216z M22.227,20.954h0.148l-0.035-0.136L22.227,20.954z
			 M22.215,24.63h2.696l0.812-0.069l0.729-0.226l0.452-0.305l0.411-0.462l0.227-0.361l0.36-0.799l0.208-0.856l0.064-0.417v-0.439
			l-0.13-0.415l-0.274-0.282l-0.461-0.227l-0.767-0.136h-3.024l-0.124,0.104l-1.229,4.235l-0.168,0.463l0.049,0.136L22.215,24.63z
			 M22.361,20.492h0.028l0.016-0.057h-0.027L22.361,20.492z M22.504,19.996h0.088l0.186-0.214l0.013-0.046h-0.06l-0.14,0.146
			l-0.066-0.046l0.098-0.056l0.028-0.103l-0.02-0.08l-0.079,0.137l-0.097,0.102l-0.029,0.104h0.096L22.504,19.996z M22.722,20.391
			h0.025l-0.011-0.056L22.722,20.391z M22.849,19.838l0.016-0.056h-0.027L22.849,19.838z M22.865,19.479l0.075-0.045h-0.034
			L22.865,19.479z M23.081,19.039l0.221-0.62l0.029-0.103L23.081,19.039z M23.127,19.083h0.028l-0.015-0.044L23.127,19.083z
			 M23.332,18.014h0.027l0.013-0.046h-0.025L23.332,18.014z M23.371,18.271l0.051-0.058l-0.005-0.101L23.371,18.271z M23.576,18.216
			l0.03-0.101h-0.062L23.53,18.16L23.576,18.216z M23.696,18.014h0.054l-0.041-0.046L23.696,18.014z M23.97,19.535h0.02l0.016-0.059
			L23.97,19.535z M24.165,19.377l0.05-0.057H24.18L24.165,19.377z M24.417,19.039h0.057l0.115-0.562L24.417,19.039z M23.991,24.889
			l0.044-0.057h-0.028L23.991,24.889z M24.649,19.174h0.025l0.014-0.046l-0.015-0.045L24.649,19.174z M26.734,25.236l0.057-0.103
			l-0.074,0.048L26.734,25.236z M28.476,21.305h0.035l0.016-0.058h-0.034L28.476,21.305z M28.551,20.954l0.045-0.058l-0.013-0.058
			L28.551,20.954z M28.649,21.427l0.118-0.077l-0.031-0.103l0.141-0.203h-0.048l-0.05,0.058l-0.01-0.058h-0.123L28.6,21.202
			l-0.075,0.146h0.094L28.649,21.427z M28.533,21.855h0.06l0.083-0.146h0.144l0.03-0.102h-0.034l-0.044-0.058l-0.134,0.157
			l-0.063,0.104l0.002-0.104L28.533,21.855z M28.407,23.523h0.061l0.104-0.361h-0.06L28.407,23.523z M28.965,21.202h0.09
			l0.016-0.058h-0.062L28.965,21.202z M28.984,21.652l0.04-0.045l-0.012-0.058L28.984,21.652z M29.203,19.939l0.018-0.058
			l-0.016-0.046l-0.013,0.046L29.203,19.939z M29.277,19.591l0.044-0.056l0.403-0.334l-0.43,0.23L29.277,19.591z M29.286,20.492
			l0.051-0.057h-0.032L29.286,20.492z M29.342,21.768l0.063-0.216h-0.034l-0.046,0.157L29.342,21.768z M29.483,20.954h0.061
			l0.033-0.113L29.483,20.954z"/>
		<path d="M28.86,25.93l0.373-1.177l0.108-0.078h0.332l0.024,0.078l0.11-0.123h0.459l0.098-0.06l0.181-0.043l0.142-0.202
			l1.333-4.599l-0.146-0.138l-1.025-0.112l-0.042-0.156l0.374-1.354l0.151-0.11l1.41,0.056h3.924l0.415,0.057h0.307l-0.014,0.046
			l-0.052,0.057l-0.041,0.146l0.076-0.056l0.024-0.093l0.111-0.123l1.048,0.183l0.646,0.271l0.37,0.67l0.021,0.066l0.105,0.079
			l0.022,0.078L39.69,19.35l0.115,0.045l-0.226,0.242h0.115l0.11,0.36l0.044,0.358l-0.022,0.08l0.039,0.146l-0.072,0.574
			l-0.088-0.09l-0.068,0.234h0.096l0.07-0.057l-0.052,0.104l-0.117,0.076l-0.11,0.387h0.062l0.096-0.205l0.021,0.103l-0.199,0.339
			l0.053,0.055l-0.019,0.061h-0.087l-0.014,0.045l0.075,0.089l-0.289,0.812l-0.307,0.609l-0.453,0.676l-0.359,0.338l-0.025-0.08
			l-0.067,0.08l0.021,0.067l-0.128,0.091l-0.234,0.202l-0.911,0.794l-0.62,0.191l-0.564,0.078l-0.441,0.057h-5.601l-0.699-0.057
			L28.86,25.93z M29.541,25.136h0.034l-0.021-0.045h-0.026L29.541,25.136z M29.754,25.236h0.033l0.029-0.103h-0.033L29.754,25.236z
			 M30.164,24.989h0.033l-0.018-0.056L30.164,24.989z M30.173,26.009l0.015-0.045l-0.019-0.057l-0.016,0.057L30.173,26.009z
			 M31.191,24.989h0.146l-0.012-0.191l0.062-0.067l0.056-0.19h-0.062l-0.001-0.135l0.11-0.123l-0.03,0.101l0.042,0.157h0.088
			l0.077-0.079l-0.059-0.078l0.013-0.046l-0.078-0.079l0.106-0.226l0.015-0.058l0.107-0.156l0.085-0.293l-0.004-0.103l0.076-0.146
			h0.061l0.045-0.158l-0.048-0.158h-0.298l-0.106,0.158l-0.076,0.26l-0.018,0.18l-0.055,0.068l-0.026,0.091l-0.062,0.101
			l-0.021-0.045l-0.108,0.045l0.029-0.101h0.068l0.074-0.112L31.38,23.48l0.02-0.057l-0.005-0.102l-0.136,0.156l-0.174,0.112
			l-0.118,0.271v0.138l-0.163,0.337l0.047,0.046l-0.02,0.249h0.128l-0.027,0.1l0.007,0.045l-0.047,0.16l0.265-0.215l0.12,0.055
			l-0.126,0.16L31.191,24.989z M30.947,24.57H30.92l0.022-0.076L30.947,24.57z M31.037,24.076l0.03-0.102h0.106l-0.042,0.146
			l-0.053,0.112l0.011-0.157L31.037,24.076L31.037,24.076z M30.813,26.109l0.028-0.103l-0.049,0.058L30.813,26.109z M31.402,23.118
			h0.02l0.103-0.113l0.005-0.134L31.45,22.96L31.402,23.118z M31.733,23.118h0.122l-0.029,0.102l-0.115,0.306l-0.027,0.191
			l0.011,0.057l-0.03,0.103h-0.175l0.113-0.203l0.043-0.146h0.066l-0.006-0.305L31.733,23.118z M31.717,22.757h0.033l0.027-0.089
			l-0.05,0.057L31.717,22.757z M32.242,20.809l0.185-0.474h0.062l0.029-0.103l-0.082-0.045l0.043-0.146l-0.109,0.046l-0.124,0.192
			l0.02,0.056l-0.07,0.056l0.022-0.203H32.17l-0.099,0.203l-0.073,0.045h0.134l-0.007,0.26L32.242,20.809z M31.916,22.746
			l0.161-0.182l0.178-0.403l-0.073,0.045l-0.024-0.079L32.27,21.9l-0.074,0.045L32.147,21.9l-0.073,0.045l0.01,0.057l-0.065,0.046
			h-0.062l-0.079,0.271l0.008,0.092l0.113-0.202l0.027,0.11l-0.136,0.326L31.916,22.746z M32.155,19.174l0.039-0.046h-0.026
			L32.155,19.174z M32.213,19.273h0.026l0.017-0.057H32.23L32.213,19.273z M32.383,18.316h0.115l-0.035-0.135L32.383,18.316z
			 M32.063,22.916l0.027-0.104h-0.025l-0.018,0.059L32.063,22.916z M32.289,21.833l0.064-0.226l-0.089,0.102h-0.062l-0.017,0.059
			L32.289,21.833z M32.531,19.736l0.03-0.103l-0.045-0.124l-0.102,0.113L32.531,19.736z M32.396,19.996h0.024l-0.01-0.057
			L32.396,19.996z M32.683,18.216L32.7,18.16l-0.048-0.045l-0.014,0.045L32.683,18.216z M32.334,20.954h0.148l-0.036-0.136
			L32.334,20.954z M32.323,24.63h2.694l0.811-0.069l0.729-0.226l0.452-0.305l0.41-0.462l0.228-0.361l0.359-0.799l0.207-0.856
			l0.068-0.417l-0.002-0.439l-0.129-0.415l-0.275-0.282l-0.463-0.227l-0.764-0.136h-3.027l-0.125,0.104l-1.229,4.235l-0.167,0.463
			l0.048,0.136L32.323,24.63z M32.468,20.492h0.027l0.019-0.057h-0.028L32.468,20.492z M32.611,19.996H32.7l0.183-0.214l0.015-0.046
			h-0.062l-0.137,0.146l-0.068-0.046l0.098-0.056l0.028-0.103l-0.017-0.08l-0.08,0.137l-0.097,0.102l-0.03,0.104h0.094
			L32.611,19.996z M32.829,20.391h0.026l-0.01-0.056L32.829,20.391z M32.955,19.838l0.018-0.056h-0.027L32.955,19.838z
			 M32.971,19.479l0.072-0.045h-0.031L32.971,19.479z M33.187,19.039l0.221-0.62l0.029-0.103L33.187,19.039z M33.235,19.083h0.027
			l-0.016-0.044L33.235,19.083z M33.438,18.014h0.025l0.015-0.046h-0.026L33.438,18.014z M33.477,18.271l0.051-0.058l-0.005-0.101
			L33.477,18.271z M33.683,18.216l0.027-0.101h-0.06l-0.013,0.045L33.683,18.216z M33.803,18.014h0.054l-0.042-0.046L33.803,18.014z
			 M34.076,19.535h0.021l0.016-0.059L34.076,19.535z M34.27,19.377l0.051-0.057h-0.033L34.27,19.377z M34.524,19.039h0.054
			l0.117-0.562L34.524,19.039z M34.098,24.889l0.043-0.057h-0.027L34.098,24.889z M34.754,19.174h0.028l0.013-0.046l-0.015-0.045
			L34.754,19.174z M36.84,25.236l0.06-0.103l-0.074,0.048L36.84,25.236z M38.583,21.305h0.032l0.018-0.058H38.6L38.583,21.305z
			 M38.658,20.954l0.043-0.058L38.69,20.84L38.658,20.954z M38.756,21.427l0.118-0.077l-0.032-0.103l0.143-0.203h-0.047
			l-0.053,0.058l-0.011-0.058h-0.122l-0.046,0.158l-0.075,0.146h0.096L38.756,21.427z M38.639,21.855H38.7l0.083-0.146h0.142
			l0.031-0.102H38.92l-0.045-0.058l-0.133,0.157l-0.062,0.104l0.003-0.104L38.639,21.855z M38.513,23.523h0.062l0.104-0.361h-0.062
			L38.513,23.523z M39.072,21.202h0.088l0.017-0.058h-0.062L39.072,21.202z M39.089,21.652l0.041-0.045l-0.011-0.058L39.089,21.652z
			 M39.31,19.939l0.016-0.058l-0.014-0.046l-0.016,0.046L39.31,19.939z M39.562,19.505l0.043-0.056l0.003-0.104h-0.027
			L39.562,19.505z M39.392,20.492l0.051-0.057h-0.034L39.392,20.492z M39.448,21.768l0.063-0.216h-0.033l-0.046,0.157L39.448,21.768
			z M39.589,20.954h0.062l0.033-0.113L39.589,20.954z"/>
		<path d="M40.639,26.189h-1.607l-0.028-0.113l0.391-1.348l0.115-0.078l0.813-0.08l0.411-0.065l0.222-0.463l1.272-4.384l-0.15-0.157
			l-1.032-0.147l-0.029-0.101l0.377-1.364l0.09-0.102h4.021l0.048,0.158l-0.37,1.353l-0.143,0.157H44.31l0.013-0.046l-0.212,0.103
			l-0.253,0.057l-0.177,0.19l-1.373,4.735l0.117,0.1h3.661l0.212-0.123l0.241-0.529l0.319-0.891l0.101-0.111h1.074l0.01,0.201
			l-0.931,3.004l-0.108,0.092h-4.32L40.639,26.189z M41.035,25.214h0.062l0.016-0.056h-0.026L41.035,25.214z M41.099,24.809h0.02
			l0.019-0.056L41.099,24.809z M41.013,26.044l0.037-0.137l-0.108,0.077h0.061L41.013,26.044z M41.464,23.547h0.021l0.013-0.045
			L41.464,23.547z M41.446,24.009h0.034l0.016-0.057L41.446,24.009z M41.554,24.381l0.077-0.181h-0.146l-0.033,0.112L41.554,24.381z
			 M41.754,23.762l-0.062-0.068l-0.122,0.281L41.754,23.762z M41.553,24.641l0.075-0.125l0.051-0.057l-0.021-0.045l0.069-0.079
			l0.022,0.079l0.062-0.066V24.02l0.133-0.27l-0.005-0.146h-0.047l-0.059,0.192l-0.094,0.065l-0.03,0.271l-0.069,0.123l-0.028,0.103
			L41.53,24.46L41.553,24.641z M41.626,23.502l0.063-0.102l0.041-0.047l-0.013-0.057L41.657,23.4L41.626,23.502z M42.285,19.253
			h0.034l0.017-0.058L42.285,19.253z M42.537,21.833l0.079-0.136l0.049,0.158l0.072-0.112l0.102-0.067l-0.004-0.146l0.045-0.158
			h-0.146l-0.047,0.158l-0.048-0.158l-0.063,0.103l-0.039,0.135l-0.096-0.111l-0.174,0.091l-0.008,0.157l-0.014,0.045l0.074-0.045
			l0.028,0.09h0.188L42.537,21.833L42.537,21.833z M42.366,21.371l0.073-0.045l0.03-0.102l-0.117,0.102L42.366,21.371z
			 M42.209,23.354l0.051-0.056l0.018-0.057L42.209,23.354z M42.69,20.256l0.047-0.045l0.068-0.236h-0.121l-0.121,0.09l-0.029,0.103
			h0.121L42.69,20.256z M42.669,20.628l0.029-0.103h-0.054L42.63,20.57L42.669,20.628z M42.582,21.979h0.088l0.043-0.146
			L42.582,21.979z M42.893,19.759h0.115l-0.012-0.056l0.116-0.191h0.027l0.027-0.103h-0.061l-0.083-0.111h-0.047l-0.181,0.36
			l0.05,0.045h0.032L42.893,19.759z M42.832,21.326l0.039-0.045l0.003-0.102l-0.072,0.045l-0.017,0.057L42.832,21.326z
			 M43.021,19.512l-0.03,0.103l-0.04,0.046l-0.014-0.046L43.021,19.512z M43.057,19.195h0.025l0.04-0.045h-0.025L43.057,19.195z
			 M43.026,19.816l0.094-0.113l0.062-0.092l-0.096,0.092L43.026,19.816z M43.254,18.453l0.043-0.057H43.27L43.254,18.453z
			 M43.214,19.703h0.028l0.04-0.045h-0.055L43.214,19.703z M43.273,19.061h0.034l-0.021-0.045L43.273,19.061z M43.476,18.295h0.031
			l0.015-0.045h-0.033L43.476,18.295z M43.649,18.137l0.041-0.045h-0.062L43.649,18.137z M44.264,18.396h0.031l0.05-0.045H44.31
			L44.264,18.396z M44.319,18.137l0.186-0.056l0.032-0.113l-0.16-0.146l-0.021,0.066l0.022,0.102h0.068L44.319,18.137z M44.2,19.195
			h0.034l-0.008-0.09l-0.035,0.045L44.2,19.195z M44.231,19.016l0.198-0.562l0.094-0.203l-0.021-0.06l-0.11,0.205L44.231,19.016z
			 M44.643,18.047l0.18-0.202h-0.068l-0.083,0.101L44.643,18.047z M44.827,18.25l-0.002-0.113l-0.27,0.856L44.827,18.25z
			 M44.908,18.295h0.026l0.059-0.104h-0.056L44.908,18.295z M46.155,26.044l0.076-0.06l0.021-0.077l-0.116,0.077L46.155,26.044z
			 M46.633,24.594l0.012-0.033h-0.027L46.633,24.594z M46.576,25.214h0.062l0.017-0.056H46.62l0.013-0.047l-0.041,0.047
			L46.576,25.214z M46.741,24.854l0.013-0.045l-0.017-0.056l-0.018,0.056L46.741,24.854z"/>
		<path d="M47.885,24.91l0.102-0.112l1.104-0.136l0.194-0.112l0.137-0.237l0.869-2.998l0.044-0.031l-0.018-0.057l0.295-1.016
			l0.056-0.429l-0.092-0.103l-0.744-0.111l0.044-0.059l0.029-0.103l-0.135,0.157h-0.275l-0.028-0.111l0.396-1.432l0.118-0.08h8.81
			l0.039,0.146l-0.494,1.77l-0.112,0.113l0.066,0.045l-0.304,1.049l-0.128,0.158h-0.945l-0.041-0.137l0.165-0.992l-0.005-0.236
			l-0.056-0.201h-4.679l-0.092,0.156l-0.459,1.467l0.037,0.189h2.177l0.203-0.214l0.193-0.383l0.043-0.058l0.095-0.326l0.104-0.079
			h0.797l0.032,0.101l-0.882,3.033l-0.137,0.146h-0.83l-0.006-0.236l0.107-0.372l0.062-0.101l-0.077,0.057l0.02-0.294l0.027-0.103
			h-0.095l0.029-0.102H53.59l-0.051,0.102h-2.105l-0.152,0.25l-0.471,1.62l0.039,0.192h4.479l0.231-0.17l0.361-0.529l0.019-0.057
			l0.153-0.305l0.238-0.543l0.104-0.123h1.041l0.001,0.226l-0.899,2.926l-0.135,0.157H47.58l-0.072-0.079L47.885,24.91z
			 M49.508,25.158h0.033l0.016-0.047h-0.033L49.508,25.158z M50.116,19.195l0.013-0.045h-0.031L50.116,19.195z M49.585,25.739h0.033
			l0.116-0.525L49.585,25.739z M50.286,22.148l0.054-0.066l-0.058-0.104l-0.062,0.104L50.286,22.148z M50.314,21.867h0.034
			l-0.024-0.034L50.314,21.867z M50.207,24.1l0.077-0.058l0.085-0.292h-0.06l-0.116,0.28L50.207,24.1z M50.116,25.158l0.054-0.09
			h-0.062L50.116,25.158z M50.426,22.184l0.028-0.102H50.4L50.426,22.184z M50.572,21.281l0.05-0.057l-0.055-0.045h-0.021
			L50.572,21.281z M50.581,21.066h0.021l0.046-0.045l-0.005-0.104h-0.021L50.581,21.066z M50.503,22.239l0.053-0.056l0.013-0.048
			l-0.048,0.048L50.503,22.239z M50.4,23.852l0.114-0.135l-0.042-0.113l-0.074,0.067L50.4,23.852z M50.542,22.341h0.062l0.015-0.057
			h-0.06L50.542,22.341z M50.666,21.473l0.046-0.046l-0.017-0.056L50.666,21.473z M50.216,25.984l0.04-0.045H50.23L50.216,25.984z
			 M50.723,21.923h0.106l-0.026-0.18l-0.056,0.09l-0.068,0.034L50.723,21.923z M50.781,21.281h0.128l0.054-0.182l-0.116,0.08H50.81
			L50.781,21.281z M50.723,22.836h0.064l0.043-0.146h-0.095l-0.05,0.058L50.723,22.836z M51.207,18.092h0.034l0.014-0.045
			L51.207,18.092z M50.429,25.739h0.025l0.109-0.479L50.429,25.739z M50.807,22.544h0.032l0.032-0.114h-0.034L50.807,22.544z
			 M50.95,22.589l0.133-0.159l0.043-0.146l0.063-0.101l-0.021-0.048l0.033-0.112l0.111,0.059l0.027-0.104l0.053-0.058l0.024-0.09
			l0.07-0.146l0.001-0.102l-0.08,0.046l-0.033,0.111l-0.087,0.09h-0.061l0.04-0.045l0.024-0.093l-0.128-0.063L51.1,21.525
			l-0.06,0.104l-0.093,0.111l-0.026,0.09l0.156-0.168l0.062,0.168l-0.091,0.305l-0.046,0.048l0.03-0.104h-0.096l-0.109,0.189
			l0.177,0.113L50.95,22.589z M50.865,22.139l0.105-0.158l-0.013-0.058l0.044-0.056H50.94l-0.072,0.09L50.865,22.139z
			 M50.975,20.729h0.062l0.028-0.102L50.975,20.729z M51.054,20.876h0.061l0.132-0.146h-0.062L51.054,20.876z M50.997,21.586
			l0.094-0.113l0.098-0.189h-0.103L50.997,21.586z M51.239,19.816H51.3l0.067-0.113h-0.096L51.239,19.816z M51.01,22.589h0.062
			l0.03-0.103L51.01,22.589z M51.289,19.975h0.088l0.018-0.058l-0.03-0.101L51.289,19.975z M51.211,21.473h0.034l0.06-0.102h-0.062
			L51.211,21.473z M51.331,21.182h0.027l-0.012-0.059L51.331,21.182z M51.355,21.281h0.062l0.028-0.102l-0.073,0.045L51.355,21.281z
			 M51.428,20.729l0.049-0.056l-0.03-0.104l-0.029,0.104L51.428,20.729z M51.443,20.47l0.05-0.057l0.013-0.045l0.062-0.112h-0.062
			L51.443,20.47z M51.621,20.368l0.05-0.058h-0.032L51.621,20.368z M51.511,21.788l0.092-0.103l0.026-0.102L51.511,21.788z
			 M53.559,22.139h0.031l0.002-0.216l-0.062,0.079L53.559,22.139z M53.707,21.632h0.033l0.014-0.046H53.72L53.707,21.632z
			 M53.694,22.184h0.035l0.04-0.045h-0.027L53.694,22.184z M53.885,22.387l0.05-0.046l-0.021-0.057h-0.024L53.885,22.387z
			 M54.162,21.923l0.18-0.291h-0.025l-0.101,0.111l-0.156,0.124L54.162,21.923z M54.654,21.066l0.062-0.104l-0.051,0.059
			L54.654,21.066z M54.934,21.473h0.026l0.015-0.046L54.934,21.473z M55.14,21.182h0.033l0.019-0.059h-0.068L55.14,21.182z
			 M57.082,19.195l0.073-0.045h-0.062L57.082,19.195z M57.38,18.191h0.056l0.017-0.057L57.38,18.191z M57.533,18.295l0.044-0.057
			l0.013-0.047h-0.026L57.533,18.295z M57.301,20.211l0.061-0.066l-0.02-0.08L57.301,20.211z M57.291,20.965h0.026l-0.013-0.045
			L57.291,20.965z M57.532,19.298l0.117-0.103h-0.088L57.532,19.298z M57.702,19.455h0.027l0.027-0.102l-0.043,0.056L57.702,19.455z
			 M57.757,19.15l0.048-0.045H57.77L57.757,19.15z M57.866,20.965l0.047-0.045h-0.034L57.866,20.965z M58.183,18.238h0.033
			l0.016-0.047h-0.035L58.183,18.238z M57.919,20.57l0.05-0.057h-0.031L57.919,20.57z"/>
		<path d="M63.39,26.076l-0.124-0.202l-0.036-0.931l-0.001-0.506l0.097-1.062l-0.011-0.429l0.081-0.137l-0.078,0.059l-0.173-0.405
			l-0.317-0.091h-1.852L60.85,22.62l-0.497,1.713l0.07,0.259l0.893,0.104l0.039,0.146l-0.37,1.279l-0.09,0.103H60.2l0.002-0.103
			l-0.097,0.103h-2.812l-0.052-0.146l0.268-0.931l0.049-0.045l-0.02-0.057l0.074-0.26l0.088-0.092l0.953-0.146h0.062l0.146-0.271
			l1.013-3.324l0.375-1.432l-0.226-0.113l-0.72-0.102l-0.03-0.125l0.379-1.373l0.083-0.08h0.816L60.52,17.84l0.135-0.091
			l-0.003,0.169l0.127-0.158l-0.071-0.033h0.419l-0.057,0.08l0.074-0.047l0.044-0.033h4.54l0.724,0.113l0.481,0.225l0.27,0.307
			l-0.027,0.812l0.016,0.146l0.029,0.078l-0.081,0.608l-0.186,0.631l-0.372,0.588l-0.528,0.449l-0.685,0.281l-0.678,0.146
			l-0.042,0.146l0.154,0.654l-0.066,1.113l0.154,0.521l0.303,0.19h0.275l0.266-0.125l0.235-0.271l0.244-0.71l0.083-0.101h0.729
			l0.031,0.101l-0.055,0.09l0.017,0.047h0.087l-0.253,0.866l-0.231,0.406l-0.479,0.828l-0.569,0.383l-0.685,0.169h-0.575
			l-0.504-0.078L63.39,26.076z M57.686,25.919l0.013-0.045h-0.026L57.686,25.919z M57.979,25.204l0.062-0.103l-0.08,0.045
			L57.979,25.204z M58.163,25.204h0.026l-0.011-0.058L58.163,25.204z M60.032,18.184h0.02l-0.005-0.057L60.032,18.184z
			 M60.119,18.184h0.062l0.031-0.113l-0.021-0.045L60.119,18.184z M59.582,24.225l0.145-0.238l0.026,0.092l0.146-0.248l0.009-0.146
			h0.202l0.021,0.045h0.098l0.055-0.189l-0.048-0.045l0.032-0.113H60.2l0.009-0.104l0.071-0.057l-0.01-0.091l0.047-0.157H60.23
			l-0.032-0.123l0.104-0.123l0.023-0.08l-0.104,0.08h-0.226l-0.077-0.117l-0.145,0.361l0.021,0.068l0.19-0.169h0.027l-0.135,0.157
			l-0.042,0.146l0.015,0.045l0.06-0.091h0.108l0.001,0.158l-0.137,0.35l-0.014-0.045l-0.09,0.057l0.005,0.236h-0.122l-0.105,0.26
			L59.582,24.225z M59.606,23.885l0.043-0.057l0.057-0.191l0.039-0.045h-0.088l-0.069,0.236L59.606,23.885z M60.472,18.127
			l0.047-0.159l-0.021-0.045l-0.044,0.146L60.472,18.127z M59.935,23.378l0.04-0.045h-0.027L59.935,23.378z M60.082,22.082
			l0.067-0.068l-0.072-0.078l-0.021,0.078L60.082,22.082z M60.026,22.532h0.023l-0.01-0.058L60.026,22.532z M60.543,18.374h0.026
			l0.069-0.079l-0.041-0.111h-0.056l0.024,0.103L60.543,18.374z M60.489,21.562h0.034l0.074-0.258h-0.034l0.098-0.104h0.081
			l0.097-0.104l0.06,0.104l0.134-0.158l-0.014-0.045l0.142-0.09l0.013-0.047h-0.024l0.089-0.102l0.047-0.156l0.05-0.058l0.029-0.103
			L61.306,20.4l0.06-0.202h-0.027l0.019-0.056h-0.088l-0.035-0.093l0.072-0.248h0.024l0.009,0.091h0.09l0.089-0.305l0.041-0.056
			l-0.015-0.048H61.42l0.021,0.048h0.024l-0.07,0.155h-0.127l0.059-0.203l0.096-0.103l0.021-0.065l-0.143,0.065l-0.017-0.056
			l0.08-0.045l-0.012-0.191h-0.331l-0.042,0.146l-0.041,0.045l0.021-0.191l-0.066,0.146l-0.075,0.045l0.229-0.855h0.033l0.06-0.361
			h-0.05l-0.088,0.307l-0.077,0.059l0.05,0.045l-0.205,0.562l0.056-0.562l-0.234,0.664l-0.046,0.045L60.5,19.331l0.064,0.103h0.056
			l0.018,0.058h0.025l-0.018,0.2L60.56,19.75l0.011,0.059h0.163l-0.031,0.338H60.63l-0.029,0.1h0.024l-0.058,0.203l-0.07,0.078
			l-0.205,0.08l0.101,0.123l0.067-0.123l-0.014,0.258l-0.026,0.091l0.046,0.146H60.5l-0.017,0.059l-0.002,0.102l-0.046,0.158
			L60.489,21.562z M60.079,23.491l0.004,0.101h-0.034l0.003-0.101H60.079z M60.258,22.262h0.062l0.03-0.101L60.258,22.262z
			 M60.297,22.014h0.062l0.047-0.045l-0.019-0.057h-0.062L60.297,22.014z M60.104,25.104l0.045-0.158h-0.066l-0.028,0.103
			L60.104,25.104z M60.258,22.871h0.067l0.029-0.102H60.32L60.258,22.871z M60.625,20.764l-0.013,0.045H60.55l0.016-0.045H60.625z
			 M60.479,22.014l0.071-0.045h0.034l0.09-0.169l-0.091,0.058h-0.061L60.479,22.014z M60.08,25.771h0.034l0.134-0.467L60.08,25.771z
			 M60.452,22.622l0.046-0.045h-0.033L60.452,22.622z M60.516,22.725l0.028-0.103h-0.032l-0.016,0.046L60.516,22.725z
			 M60.569,22.216h0.121l0.059-0.202l-0.025-0.091l-0.092,0.193l-0.017-0.058h-0.034L60.569,22.216z M60.717,21.518l0.094-0.313
			l-0.143,0.157l-0.018,0.227L60.717,21.518z M60.949,20.3l-0.117,0.08l0.045-0.157L60.949,20.3z M60.761,21.768h0.031l0.029-0.103
			H60.76v0.103H60.761z M60.922,20.999h-0.032l0.047-0.045L60.922,20.999z M60.991,20.764h0.061l-0.014,0.045l-0.043,0.057
			l-0.051-0.057L60.991,20.764z M61.1,20.199l0.022,0.101l-0.013,0.046h-0.055L61.1,20.199z M61.075,21.102h0.026l0.028-0.103
			L61.075,21.102z M62.724,21.259h0.062l0.084-0.057h0.935l0.824-0.058l0.56-0.182l0.379-0.416l0.118-0.404l-0.011-0.203
			l-0.152-0.26l-0.403-0.19h-3.264l-0.142,0.157l-0.379,1.308l0.005,0.19l1.438,0.058L62.724,21.259z M61.72,18.184h0.061
			l0.032-0.113L61.72,18.184z M62.314,21.417l0.05-0.058h-0.033L62.314,21.417z M62.351,21.709h0.032l0.029-0.102l-0.051,0.058
			L62.351,21.709z M62.579,21.462h0.026l0.013-0.045L62.579,21.462z M62.982,18.328h0.033l-0.021-0.044L62.982,18.328z
			 M63.103,18.023l0.077-0.058l-0.021-0.045h-0.027L63.103,18.023z M63.092,21.462l0.142-0.157H63.2L63.092,21.462z M63.524,18.229
			l0.04-0.045l0.016-0.057L63.524,18.229z M63.732,18.374l0.013-0.046H63.71L63.732,18.374z M63.569,19.095h0.027l0.043-0.056
			l0.115-0.562H63.73L63.569,19.095z M63.979,18.432h0.033l0.051-0.058H64.03L63.979,18.432z M63.716,23.592l0.019-0.056H63.7
			L63.716,23.592z M64.073,19.241l0.037-0.058l0.013-0.045L64.073,19.241z M63.914,23.333h0.034l0.043-0.058h-0.027L63.914,23.333z
			 M64.668,25.204h0.033l0.017-0.058L64.668,25.204z M65.883,20.199l0.063-0.078l-0.03-0.125l0.018-0.057l-0.053,0.057l-0.042,0.146
			L65.883,20.199z M65.936,19.805h0.062l0.018-0.057h-0.062L65.936,19.805z M66.072,19.852l0.041-0.047h-0.028L66.072,19.852z
			 M66.265,20.648h0.026l0.015-0.043h-0.028L66.265,20.648z M66.298,20.863l0.037-0.057l-0.008-0.046L66.298,20.863z M66.448,20.648
			l0.025-0.201l0.04-0.045l0.081-0.137l-0.021-0.066l0.042-0.057h-0.087l0.021-0.146l-0.05,0.057l-0.173,0.598h0.121L66.448,20.648
			L66.448,20.648z M66.462,19.646h0.033l0.019-0.058L66.462,19.646z M66.689,19.962l0.063-0.067l-0.003-0.146h-0.075l-0.043,0.146
			L66.689,19.962z M66.786,19.996h0.062l-0.044-0.057H66.77L66.786,19.996z M66.732,20.605l0.016-0.059H66.72L66.732,20.605z"/>
	</g>
	<g>
		<path d="M7.599,5.747c0.006,0.112,0.085,0.177,0.21,0.177c0.542,0,1.099-0.597,1.397-0.998C9.243,4.879,9.27,4.879,9.304,4.935
			c0.062,0.103,0.051,0.233-0.021,0.326c-0.291,0.401-0.93,1.231-1.748,1.231c-0.39,0-0.632-0.233-0.654-0.634
			C6.857,5.429,7.175,4.824,7.57,4.218C7.349,4.18,7.199,4.068,7.104,3.901C7.072,3.844,7.09,3.816,7.137,3.807
			C7.345,3.77,7.638,3.742,7.913,3.733c0.379-0.532,0.771-1.007,0.976-1.305C8.923,2.381,8.95,2.363,9.009,2.4
			C9.097,2.456,9.19,2.567,9.234,2.679c0.089,0.233-0.041,0.458-0.216,0.718c-0.115,0.168-0.24,0.326-0.24,0.326
			c0.172,0.01,0.325,0.019,0.438,0.038c0.06,0.01,0.069,0.046,0.046,0.104C9.22,3.957,9.149,4.041,9.076,4.106
			c-0.155,0.13-0.41,0.149-0.705,0.149C7.973,4.786,7.577,5.364,7.599,5.747z"/>
		<path d="M9.518,5.364c0.456-0.522,1.229-1.146,1.698-1.417c0.083-0.046,0.143-0.038,0.201,0.028
			c0.062,0.075,0.104,0.158,0.141,0.261c0.032,0.103,0.021,0.232-0.074,0.391c-0.228,0.374-0.598,0.876-0.58,1.185
			c0.004,0.074,0.054,0.112,0.13,0.112c0.418,0,0.938-0.616,1.219-0.998c0.036-0.047,0.074-0.047,0.098,0.009
			c0.044,0.112,0.051,0.233-0.021,0.326c-0.301,0.401-0.938,1.249-1.653,1.249c-0.294,0-0.515-0.195-0.529-0.475
			c-0.026-0.476,0.432-1.119,0.845-1.567C10.374,4.86,9.424,5.727,8.898,6.37c-0.063,0.065-0.091,0.065-0.15,0.028
			C8.68,6.353,8.618,6.287,8.567,6.222C8.475,6.11,8.506,5.998,8.61,5.822c0.805-1.438,3.096-4.857,3.91-5.79
			c0.036-0.047,0.083-0.038,0.133,0c0.109,0.083,0.223,0.242,0.268,0.364C13,0.61,12.968,0.731,12.847,0.946
			C12.268,1.961,10.601,3.798,9.518,5.364z"/>
		<path d="M12.899,6.586c-0.609,0-0.961-0.336-0.988-0.802c-0.047-0.83,1.007-1.892,2.064-1.892c0.371,0,0.553,0.186,0.548,0.457
			c-0.009,0.513-0.776,1.091-1.787,1.053c-0.016,0.056-0.022,0.112-0.021,0.168c-0.004,0.261,0.159,0.457,0.475,0.457
			c0.808,0,1.46-0.765,1.708-1.1c0.036-0.047,0.073-0.047,0.096,0.009c0.044,0.112,0.051,0.233-0.02,0.326
			C14.683,5.663,13.955,6.586,12.899,6.586z M13.889,4.395c0.022-0.074,0.011-0.149-0.075-0.149c-0.286,0-0.792,0.466-1.003,0.941
			C13.392,5.047,13.799,4.656,13.889,4.395z"/>
	</g>
	<g>
		<polygon points="69.537,10.372 68.095,10.451 67.891,10.053 68.058,9.017 68.398,8.777 69.724,10.053 		"/>
		<polygon points="67.095,9.096 66.299,9.096 66.108,8.539 65.165,8.379 65.43,8.061 66.706,8.061 67.15,8.458 		"/>
		<polygon points="65.724,11.168 65.833,9.894 66.151,9.894 66.342,10.451 67.279,10.69 67.292,11.487 68.386,11.726 68.498,12.285 
			66.666,12.285 66.328,11.567 		"/>
		<polygon points="64.596,10.372 63.155,10.451 62.951,10.053 63.119,9.017 63.458,8.777 64.784,10.053 		"/>
		<polygon points="62.155,9.096 61.359,9.096 61.166,8.539 60.224,8.379 60.49,8.061 61.766,8.061 62.209,8.458 		"/>
		<polygon points="60.784,11.168 60.892,9.894 61.21,9.894 61.402,10.451 62.338,10.69 62.35,11.487 63.446,11.726 63.557,12.285 
			61.725,12.285 61.387,11.567 		"/>
		<polygon points="59.576,10.372 58.136,10.451 57.931,10.053 58.098,9.017 58.438,8.777 59.764,10.053 		"/>
		<polygon points="57.135,9.096 56.338,9.096 56.147,8.539 55.205,8.379 55.47,8.061 56.746,8.061 57.19,8.458 		"/>
		<polygon points="55.764,11.168 55.872,9.894 56.19,9.894 56.383,10.451 57.318,10.69 57.331,11.487 58.425,11.726 58.538,12.285 
			56.706,12.285 56.368,11.567 		"/>
		<polygon points="54.556,10.372 53.115,10.451 52.911,10.053 53.078,9.017 53.417,8.777 54.743,10.053 		"/>
		<polygon points="52.115,9.096 51.318,9.096 51.126,8.539 50.184,8.379 50.45,8.061 51.725,8.061 52.169,8.458 		"/>
		<polygon points="50.744,11.168 50.851,9.894 51.17,9.894 51.363,10.451 52.297,10.69 52.311,11.487 53.406,11.726 53.517,12.285 
			51.685,12.285 51.347,11.567 		"/>
		<polygon points="49.616,10.372 48.174,10.451 47.969,10.053 48.138,9.017 48.477,8.777 49.803,10.053 		"/>
		<polygon points="47.174,9.096 46.378,9.096 46.185,8.539 45.244,8.379 45.509,8.061 46.785,8.061 47.229,8.458 		"/>
		<polygon points="45.803,11.168 45.912,9.894 46.23,9.894 46.421,10.451 47.358,10.69 47.37,11.487 48.465,11.726 48.577,12.285 
			46.745,12.285 46.407,11.567 		"/>
		<polygon points="44.515,10.372 43.076,10.451 42.871,10.053 43.038,9.017 43.376,8.777 44.704,10.053 		"/>
		<polygon points="42.074,9.096 41.278,9.096 41.086,8.539 40.144,8.379 40.409,8.061 41.684,8.061 42.128,8.458 		"/>
		<polygon points="40.703,11.168 40.811,9.894 41.129,9.894 41.323,10.451 42.257,10.69 42.27,11.487 43.365,11.726 43.476,12.285 
			41.644,12.285 41.307,11.567 		"/>
		<polygon points="41.994,13.797 40.566,13.719 40.293,14.116 40.285,15.152 40.583,15.393 42.125,14.116 		"/>
		<polygon points="39.336,15.072 38.54,15.072 38.252,15.63 37.283,15.79 37.495,16.109 38.769,16.109 39.283,15.711 		"/>
		<polygon points="38.317,13 38.208,14.275 38.526,14.275 38.813,13.719 39.79,13.48 39.937,12.682 41.074,12.443 41.28,11.885 
			39.447,11.885 38.987,12.602 		"/>
		<polygon points="69.217,15.072 68.421,15.072 68.135,15.63 67.165,15.79 67.376,16.109 68.652,16.109 69.163,15.711 		"/>
		<polyline points="69.33,11.885 68.87,12.602 68.198,13 68.089,14.275 68.409,14.275 68.696,13.719 69.671,13.48 69.82,12.682 		
			"/>
		<polygon points="66.935,13.797 65.508,13.719 65.235,14.116 65.227,15.152 65.526,15.393 67.068,14.116 		"/>
		<polygon points="64.277,15.072 63.481,15.072 63.194,15.63 62.224,15.79 62.436,16.109 63.711,16.109 64.223,15.711 		"/>
		<polygon points="63.257,13 63.15,14.275 63.468,14.275 63.753,13.719 64.731,13.48 64.878,12.682 66.014,12.443 66.221,11.885 
			64.389,11.885 63.929,12.602 		"/>
		<polygon points="61.916,13.797 60.489,13.719 60.216,14.116 60.207,15.152 60.505,15.393 62.049,14.116 		"/>
		<polygon points="59.258,15.072 58.46,15.072 58.174,15.63 57.205,15.79 57.416,16.109 58.692,16.109 59.204,15.711 		"/>
		<polygon points="58.238,13 58.129,14.275 58.449,14.275 58.736,13.719 59.711,13.48 59.859,12.682 60.995,12.443 61.201,11.885 
			59.369,11.885 58.909,12.602 		"/>
		<polygon points="56.894,13.797 55.467,13.719 55.196,14.116 55.186,15.152 55.485,15.393 57.028,14.116 		"/>
		<polygon points="54.237,15.072 53.441,15.072 53.154,15.63 52.184,15.79 52.396,16.109 53.671,16.109 54.182,15.711 		"/>
		<polygon points="53.218,13 53.109,14.275 53.428,14.275 53.715,13.719 54.691,13.48 54.838,12.682 55.973,12.443 56.18,11.885 
			54.348,11.885 53.888,12.602 		"/>
		<polygon points="51.955,13.797 50.527,13.719 50.254,14.116 50.247,15.152 50.545,15.393 52.087,14.116 		"/>
		<polygon points="49.296,15.072 48.5,15.072 48.212,15.63 47.244,15.79 47.456,16.109 48.731,16.109 49.243,15.711 		"/>
		<polygon points="48.278,13 48.169,14.275 48.488,14.275 48.774,13.719 49.75,13.48 49.897,12.682 51.034,12.443 51.241,11.885 
			49.408,11.885 48.949,12.602 		"/>
		<polygon points="46.854,13.797 45.427,13.719 45.155,14.116 45.146,15.152 45.445,15.393 46.988,14.116 		"/>
		<polygon points="44.196,15.072 43.4,15.072 43.113,15.63 42.144,15.79 42.355,16.109 43.631,16.109 44.142,15.711 		"/>
		<polygon points="43.176,13 43.069,14.275 43.387,14.275 43.674,13.719 44.65,13.48 44.798,12.682 45.934,12.443 46.14,11.885 
			44.308,11.885 43.848,12.602 		"/>
	</g>
</g>
</svg>
