<?xml version="1.0" encoding="utf-8"?>
<!-- Generator: Adobe Illustrator 15.0.2, SVG Export Plug-In . SVG Version: 6.00 Build 0)  -->
<!DOCTYPE svg PUBLIC "-//W3C//DTD SVG 1.1//EN" "http://www.w3.org/Graphics/SVG/1.1/DTD/svg11.dtd">
<svg version="1.1" id="Layer_1" xmlns="http://www.w3.org/2000/svg" xmlns:xlink="http://www.w3.org/1999/xlink" x="0px" y="0px"
	 width="58.34px" height="14.953px" viewBox="0 0 58.34 14.953" enable-background="new 0 0 58.34 14.953" xml:space="preserve">
<g>
	<g>
		<rect x="7.559" y="12.455" fill="#FFC425" width="41.676" height="2.327"/>
		<g>
			<g>
				<g>
					<path fill="#231F20" d="M57.094,5.767c0.689-0.001,1.246,0.56,1.246,1.255c-0.004,0.694-0.557,1.253-1.244,1.254
						c-0.689-0.001-1.244-0.561-1.244-1.255C55.854,6.327,56.411,5.766,57.094,5.767z M57.094,8.031c0.553,0,1.002-0.45,1.004-1.008
						c-0.002-0.56-0.451-1.011-1.004-1.011c-0.549,0-0.998,0.453-0.998,1.007C56.098,7.581,56.542,8.031,57.094,8.031z M56.534,6.36
						l0.625,0c0.318,0.001,0.445,0.17,0.445,0.377c0.002,0.196-0.135,0.34-0.354,0.368v0.007c0.107,0.037,0.16,0.111,0.252,0.263
						l0.184,0.316l-0.336,0l-0.109-0.214c-0.131-0.264-0.213-0.332-0.369-0.332l-0.068,0l-0.002,0.546l-0.268-0.001V6.36z
						 M57.096,6.933c0.139,0.001,0.227-0.076,0.227-0.182c0-0.119-0.092-0.178-0.279-0.18l-0.238,0.001l-0.002,0.362L57.096,6.933z"
						/>
				</g>
			</g>
			<path fill="#231F20" d="M5.726,11.8c-0.797,0.738-1.176,0.953-1.682,0.953c-1.276,0-1.8-1.531-1.798-5.276
				c0-3.747,0.499-5.274,1.736-5.272c0.499,0,1.087,0.302,1.573,0.816l0.37,0.384l0.001-2.55L5.822,0.778
				C5.171,0.291,4.438,0.001,3.864,0C1.409,0.001,0,2.755,0,7.563c0,4.696,1.396,7.391,3.825,7.39
				c0.786-0.001,1.437-0.252,2.167-0.848l0.094-0.075l0.001-2.564L5.726,11.8z"/>
			<path fill="#231F20" d="M11.644,0.608L11.487,0.61L9.796,0.609L7.538,11.53l1.824,0.001c0,0,0.399-2.048,0.452-2.319
				c0.247-0.002,1.575,0,1.826,0c0.048,0.273,0.413,2.318,0.413,2.318l1.831,0.002L11.644,0.608z M11.308,7.57
				c-0.284,0.001-0.911,0.001-1.194,0.001c0.06-0.32,0.398-2.164,0.596-3.242C10.91,5.408,11.251,7.25,11.308,7.57z"/>
			<path fill="#231F20" d="M21.521,0.673l-1.4,0.001c0,0-1.304,2.928-1.588,3.562c-0.28-0.633-1.585-3.563-1.585-3.563h-1.592
				l-0.001,10.855l1.837,0.004l-0.078-6.906l1.427,3.385l1.416-3.386l-0.076,6.906h1.834L21.711,0.672L21.521,0.673z"/>
			<path fill="#231F20" d="M25.827,9.893c-0.001-0.327,0-2.864-0.002-3.19c0.326-0.001,2.405,0,2.405,0l0-1.642
				c0,0-2.08,0.001-2.403,0.001c-0.001-0.316,0-2.432,0-2.749c0.33,0,2.626-0.001,2.626-0.001l0-1.638l-0.189-0.001L23.96,0.673
				l0.002,10.858l4.629-0.001V9.893C28.591,9.893,26.16,9.892,25.827,9.893z"/>
			<path fill="#231F20" d="M32.524,9.892c0.004-0.371,0-9.217,0-9.217l-0.188-0.001l-1.678-0.001l-0.002,10.86l4.49,0.001v-1.64
				C35.147,9.894,32.858,9.893,32.524,9.892z"/>
			<path fill="#231F20" d="M40.29,5.694c0.852-0.563,1.338-1.343,1.338-2.244c0-1.366-1.209-2.779-3.232-2.778l-1.762-0.001h-0.189
				L36.44,11.53h1.592c2.84,0,3.855-1.662,3.854-3.216C41.885,7.113,41.331,6.244,40.29,5.694z M38.379,9.892c0,0-0.041,0-0.068,0
				c0-0.324,0-2.818,0-3.141c0.027,0,0.066-0.003,0.066-0.003c1.52,0.003,1.641,1.235,1.641,1.609
				C40.018,9.333,39.42,9.893,38.379,9.892z M38.311,5.1c0-0.33,0-2.453,0-2.779c0.932,0.017,1.447,0.492,1.447,1.349
				C39.758,4.552,39.211,5.079,38.311,5.1z"/>
			<path fill="#231F20" d="M46.979,0.609l-0.16,0L45.129,0.61l-2.258,10.92l1.826,0.002c0,0,0.398-2.049,0.449-2.32
				c0.252,0,1.576,0,1.824-0.001c0.051,0.274,0.414,2.32,0.414,2.32l1.83-0.001L46.979,0.609z M46.643,7.572
				c-0.283,0.001-0.912-0.001-1.199,0c0.057-0.321,0.4-2.162,0.598-3.241C46.245,5.409,46.584,7.251,46.643,7.572z"/>
			<path fill="#231F20" d="M57.045,14.768c0,0-2.594-7.284-2.656-7.459c0.059-0.181,2.133-6.793,2.133-6.793l-0.313,0.001
				l-1.879-0.002l-1.521,5.61V0.517h-0.217l-1.9,0L50.69,14.766l2.119,0.003V8.711l2.021,6.055L57.045,14.768z"/>
		</g>
	</g>
</g>
</svg>
