<?xml version="1.0" encoding="utf-8"?>
<!-- Generator: Adobe Illustrator 15.1.0, SVG Export Plug-In . SVG Version: 6.00 Build 0)  -->
<!DOCTYPE svg PUBLIC "-//W3C//DTD SVG 1.1//EN" "http://www.w3.org/Graphics/SVG/1.1/DTD/svg11.dtd">
<svg version="1.1" id="Layer_1" xmlns="http://www.w3.org/2000/svg" xmlns:xlink="http://www.w3.org/1999/xlink" x="0px" y="0px"
	 width="59.115px" height="7.676px" viewBox="0 0 59.115 7.676" enable-background="new 0 0 59.115 7.676" xml:space="preserve">
<g>
	<g>
		<g>
			<path fill="#231F20" d="M58.246,0.004h0.344v0.063h-0.135v0.361h-0.074V0.066h-0.135V0.004z"/>
			<path fill="#231F20" d="M58.674,0.004h0.104l0.117,0.332h0.002l0.112-0.332h0.104v0.424h-0.07V0.1h-0.002l-0.117,0.328h-0.062
				L58.746,0.1l0,0v0.328h-0.072V0.004z"/>
		</g>
	</g>
	<g>
		<path fill="#EE3124" d="M3.989,1.188C4.76,3.113,5.838,4.627,7.434,5.904c0.889-0.59,1.871-1.826,1.164-3.078
			c-0.1-0.176-0.178-0.34-0.273-0.539C8.124,1.861,8.409,1.428,8.872,1.318c1.114-0.264,3.235-0.264,4.348,0
			c0.467,0.109,0.741,0.535,0.547,0.969c-1.138,2.557-3.676,4.207-6.472,4.207c-1.673,0-3.166-0.621-4.057-1.279
			c-0.405-0.301-0.405-0.838-0.03-1.121c0.139-0.108,0.248-0.184,0.381-0.28C3.921,3.58,4.075,3.043,3.83,2.535
			c0,0-0.062-0.137-0.114-0.248C2.298,2.945,1.272,3.605,0.214,4.42c-0.301,0.232-0.266,0.615-0.007,0.818
			c2.041,1.594,4.492,2.438,7.085,2.438c4.643,0,8.494-2.693,10.356-6.467c0.123-0.252-0.023-0.633-0.408-0.723
			C16.006,0.199,13.122,0,11.046,0C8.622,0,5.634,0.195,4.398,0.486C4.058,0.568,3.869,0.889,3.989,1.188z"/>
	</g>
	<g>
		<g>
			<g>
				<g>
					<g>
						<path fill="#231F20" d="M34.354,1.172c0-0.631-0.51-1.141-1.141-1.141h-1.248c-0.139,0-0.254,0.111-0.254,0.252V6.41
							c0,0.631,0.514,1.143,1.145,1.143h1.246c0.139,0,0.252-0.115,0.252-0.256V1.172z"/>
						<path fill="#231F20" d="M50.037,5.324V2.258c0-0.764,0.623-1.385,1.387-1.385h2.791c0.767,0,1.388,0.621,1.388,1.385v3.066
							c0,0.764-0.621,1.385-1.388,1.385h-2.791C50.66,6.709,50.037,6.088,50.037,5.324z M56.26,7.553
							c0.978,0,1.777-0.734,1.884-1.684c0.078-0.686,0.116-1.385,0.116-2.078c0-0.693-0.038-1.393-0.116-2.078
							c-0.104-0.949-0.906-1.684-1.884-1.684h-6.879c-0.979,0-1.776,0.734-1.883,1.684c-0.08,0.686-0.119,1.385-0.119,2.078
							c0,0.693,0.039,1.393,0.119,2.078c0.104,0.949,0.903,1.684,1.883,1.684H56.26z"/>
						<path fill="#231F20" d="M30.035,7.553c0.411,0,0.6-0.393,0.461-0.74c-0.62-1.551-1.54-2.814-2.85-3.844
							c-0.71,0.471-1.459,1.424-0.894,2.422c0.08,0.145,0.182,0.336,0.28,0.543c0.161,0.342-0.051,0.775-0.437,0.775h-2.889
							c-0.765,0-1.387-0.621-1.387-1.385V2.258c0-0.764,0.623-1.385,1.387-1.385h6.124c0.384,0,0.694-0.313,0.694-0.695V0.031
							l-8.862-0.002c-0.977,0-1.776,0.734-1.883,1.684c-0.078,0.686-0.118,1.385-0.118,2.078c0,0.693,0.04,1.393,0.118,2.078
							c0.107,0.949,0.906,1.684,1.883,1.684H30.035z"/>
					</g>
					<path fill="#231F20" d="M46.274,2.67c-0.021-0.32-0.047-0.641-0.084-0.957c-0.106-0.949-0.905-1.682-1.883-1.682h-8.611
						c-0.139,0-0.254,0.111-0.254,0.252v7.014c0,0.141,0.115,0.256,0.254,0.256h1.246c0.632,0,1.144-0.512,1.144-1.143V2.012
						c0-0.629,0.511-1.139,1.142-1.139h3.037c0.764,0,1.385,0.621,1.385,1.385v0.225c0,0.383-0.313,0.643-0.692,0.693
						c-0.653,0.092-1.283,0.191-1.94,0.318c-0.404,0.076-0.601,0.393-0.461,0.738c0.518,1.297,1.25,2.393,2.241,3.32
						c0,0,2.123,0,2.373,0c0.222,0,0.373-0.274,0.207-0.457c-0.662-0.725-1.269-1.689-1.678-2.649
						c-0.152-0.354,0.065-0.69,0.438-0.774c0.454-0.104,0.963-0.211,1.446-0.307C45.957,3.291,46.293,3.053,46.274,2.67"/>
				</g>
			</g>
		</g>
	</g>
</g>
</svg>
