<?xml version="1.0" encoding="utf-8"?>
<!-- Generator: Adobe Illustrator 15.1.0, SVG Export Plug-In . SVG Version: 6.00 Build 0)  -->
<!DOCTYPE svg PUBLIC "-//W3C//DTD SVG 1.1//EN" "http://www.w3.org/Graphics/SVG/1.1/DTD/svg11.dtd">
<svg version="1.1" id="Layer_1" xmlns="http://www.w3.org/2000/svg" xmlns:xlink="http://www.w3.org/1999/xlink" x="0px" y="0px"
	 width="58.45px" height="16.76px" viewBox="0 0 58.45 16.76" enable-background="new 0 0 58.45 16.76" xml:space="preserve">
<g>
	<path fill="#231F20" d="M16.441,0.422C15.889,0.141,15.19,0.001,14.349,0c-0.854,0-1.552,0.162-2.09,0.484
		c-0.539,0.323-0.866,0.677-0.98,1.065c-0.112,0.388-0.171,1.008-0.17,1.866l-0.001,2.661c0.001,0.242,0.005,0.461,0.014,0.655
		l-1.2-6.547L5.77,0.182L4.601,7.351L2.876,7.35l0.001-7.169H0.004L0,9.142h4.309h0.307l2.663,0.002l0.167-1.615L8.472,7.53
		l0.153,1.613l2.938,0.002l-0.222-1.213c0.066,0.142,0.151,0.279,0.256,0.413c0.219,0.281,0.538,0.517,0.957,0.707
		c0.419,0.191,0.87,0.285,1.352,0.285c0.402,0,0.753-0.068,1.051-0.209s0.543-0.347,0.738-0.623l0.269,0.641l1.812,0.002
		l0.002-4.806L14.42,4.341v1.364h0.57v1.06c0,0.415-0.039,0.695-0.112,0.839c-0.074,0.145-0.215,0.214-0.423,0.214
		c-0.189,0-0.315-0.063-0.378-0.19c-0.063-0.126-0.094-0.392-0.093-0.793V2.538c0-0.458,0.032-0.741,0.097-0.853
		c0.062-0.11,0.182-0.166,0.358-0.166c0.203,0,0.332,0.065,0.387,0.194c0.054,0.128,0.08,0.45,0.08,0.959v0.814l2.874,0.001V3.098
		c0-0.733-0.085-1.292-0.252-1.679C17.359,1.035,16.997,0.703,16.441,0.422 M7.421,5.937c0.071-0.788,0.253-2.041,0.544-3.758
		c0.147,1.498,0.292,2.749,0.436,3.759L7.421,5.937z"/>
	<path fill="#231F20" d="M21.602,6.792c0,0.446-0.025,0.73-0.078,0.851c-0.053,0.118-0.168,0.178-0.35,0.178
		C21.015,7.82,20.91,7.767,20.86,7.658c-0.052-0.109-0.077-0.36-0.077-0.75l0.001-6.721H17.91v5.302
		c-0.001,1.012,0.021,1.675,0.067,1.992c0.044,0.315,0.192,0.616,0.442,0.899c0.25,0.284,0.627,0.516,1.133,0.692
		c0.504,0.177,1.087,0.267,1.746,0.266c0.594,0,1.112-0.073,1.551-0.223c0.438-0.15,0.792-0.37,1.06-0.658
		c0.267-0.292,0.429-0.574,0.484-0.848c0.056-0.273,0.083-0.752,0.083-1.431l0.001-5.99l-2.873-0.002L21.602,6.792z"/>
	<polygon fill="#231F20" points="28.676,4.224 27.068,0.188 24.664,0.188 24.661,9.147 27.057,9.149 27.059,5.076 28.549,9.151 
		31.07,9.151 31.075,0.189 28.677,0.188 	"/>
	<rect x="31.23" y="0.191" fill="#231F20" width="2.874" height="8.96"/>
	<path fill="#231F20" d="M52.008,4.961c-0.332-0.394-1.135-0.902-2.411-1.52c-0.445-0.215-0.716-0.398-0.812-0.549
		c-0.103-0.149-0.152-0.374-0.152-0.674c0-0.231,0.046-0.404,0.136-0.519c0.089-0.113,0.222-0.171,0.396-0.171
		c0.16,0,0.274,0.043,0.344,0.126c0.068,0.084,0.104,0.282,0.104,0.591L49.61,2.906l2.665,0.002V2.556
		c0-0.711-0.086-1.215-0.257-1.511c-0.17-0.297-0.52-0.544-1.043-0.739c-0.523-0.195-1.162-0.293-1.908-0.294
		c-0.681,0-1.266,0.09-1.746,0.269c-0.48,0.178-0.83,0.426-1.048,0.744c-0.216,0.316-0.321,0.819-0.321,1.504
		c0,0.477,0.073,0.867,0.227,1.173c0.152,0.307,0.345,0.545,0.578,0.72c0.229,0.173,0.703,0.452,1.418,0.837
		c0.713,0.381,1.16,0.653,1.343,0.814c0.179,0.163,0.267,0.507,0.269,1.034c0,0.239-0.05,0.421-0.143,0.543
		c-0.096,0.121-0.236,0.18-0.432,0.18c-0.191,0-0.324-0.047-0.399-0.144C48.735,7.591,48.698,7.374,48.7,7.04V5.951L46.032,5.95
		v0.586c0,0.022,0,0.041,0,0.06l-1.174-6.402l-4.148-0.001l-0.196,1.22l-0.001-1.219l-6.277-0.003L34.23,1.982l1.702,0.001
		l-0.001,7.168l2.873,0.002l0.002-7.17l1.608,0.001l-1.168,7.169h2.969l0.17-1.612h1.025l0.149,1.614l2.938,0.001L46.32,8.161
		c0.181,0.335,0.522,0.612,1.03,0.833c0.543,0.235,1.199,0.353,1.97,0.354c0.698,0,1.313-0.103,1.841-0.308
		c0.528-0.205,0.883-0.458,1.068-0.762c0.184-0.302,0.275-0.771,0.277-1.41C52.506,5.992,52.338,5.356,52.008,4.961 M42.357,5.949
		c0.073-0.789,0.257-2.042,0.546-3.757c0.148,1.496,0.294,2.748,0.438,3.757H42.357z"/>
	<path fill="#231F20" d="M0,9.653h1.597c0.504,0,0.888,0.021,1.146,0.065c0.26,0.046,0.469,0.138,0.629,0.273
		c0.158,0.137,0.239,0.354,0.239,0.659c0,0.205-0.057,0.35-0.17,0.43c-0.112,0.082-0.334,0.145-0.667,0.188
		c0.371,0.049,0.62,0.129,0.753,0.238c0.13,0.109,0.198,0.28,0.197,0.51v0.324c0.001,0.238-0.049,0.414-0.144,0.529
		c-0.095,0.113-0.247,0.191-0.454,0.232c-0.208,0.043-0.633,0.063-1.276,0.063H0V9.653z M1.601,10.254v0.78
		c0.068,0,0.122-0.003,0.159-0.003c0.157,0.002,0.256-0.021,0.299-0.065c0.044-0.044,0.065-0.17,0.066-0.378
		c0-0.11-0.019-0.188-0.053-0.231c-0.036-0.043-0.083-0.07-0.139-0.082C1.875,10.263,1.765,10.255,1.601,10.254 M1.601,11.583
		L1.6,12.567c0.226-0.004,0.369-0.025,0.431-0.062c0.062-0.036,0.093-0.123,0.094-0.266l-0.001-0.328
		c0.001-0.151-0.027-0.242-0.083-0.273C1.986,11.606,1.839,11.588,1.601,11.583"/>
	<path fill="#231F20" d="M3.754,9.653l1.133,0.002c0.754,0.001,1.266,0.017,1.534,0.049C6.688,9.739,6.906,9.823,7.074,9.96
		c0.168,0.137,0.251,0.354,0.251,0.652c0,0.275-0.059,0.459-0.178,0.552c-0.12,0.097-0.354,0.151-0.703,0.172
		c0.315,0.044,0.53,0.104,0.639,0.179c0.107,0.075,0.176,0.146,0.203,0.207c0.026,0.062,0.039,0.237,0.039,0.521v0.928l-1.488-0.002
		l0.001-1.166c-0.001-0.188-0.025-0.306-0.078-0.352c-0.053-0.045-0.188-0.065-0.407-0.065l-0.001,1.583H3.753L3.754,9.653z
		 M5.354,10.255v0.78c0.18,0,0.305-0.015,0.377-0.041c0.071-0.029,0.106-0.119,0.107-0.275v-0.192
		c-0.001-0.109-0.034-0.185-0.104-0.219C5.664,10.272,5.538,10.255,5.354,10.255"/>
	<polygon fill="#231F20" points="7.44,9.656 10.111,9.657 10.111,10.36 9.041,10.36 9.041,11.022 10.042,11.022 10.041,11.694 
		9.041,11.694 9.041,12.466 10.214,12.467 10.214,13.171 7.44,13.17 	"/>
	<path fill="#231F20" d="M16.189,9.658l-0.713,3.516l-1.996-0.002c-0.183-0.54-0.343-1.155-0.483-1.843
		c-0.066,0.296-0.215,0.908-0.446,1.843h-1.985L9.853,9.657l1.555-0.001l0.166,1.228l0.161,1.186
		c0.062-0.612,0.209-1.416,0.444-2.41h1.661c0.024,0.104,0.082,0.488,0.176,1.158l0.176,1.34c0.09-0.854,0.237-1.684,0.445-2.497
		L16.189,9.658L16.189,9.658z"/>
	<rect x="16.002" y="9.658" fill="#231F20" width="1.601" height="3.516"/>
	<polygon fill="#231F20" points="21.312,9.659 21.312,13.174 19.908,13.174 19.078,11.577 19.078,13.174 17.738,13.173 
		17.739,9.659 19.075,9.659 19.973,11.243 19.973,9.659 	"/>
	<path fill="#231F20" d="M25.118,10.956l-1.6-0.002l-0.002-0.32c0.002-0.201-0.014-0.326-0.045-0.377
		c-0.029-0.051-0.102-0.076-0.214-0.076c-0.101,0-0.167,0.021-0.203,0.064c-0.034,0.044-0.052,0.154-0.052,0.336l-0.001,1.688
		c0,0.158,0.017,0.264,0.053,0.313c0.036,0.05,0.107,0.073,0.213,0.073c0.117,0,0.196-0.027,0.237-0.086
		c0.043-0.057,0.063-0.164,0.063-0.329v-0.415h-0.324V11.29h1.873l-0.001,1.887H24.11l-0.146-0.252
		c-0.111,0.109-0.247,0.189-0.414,0.244c-0.167,0.053-0.361,0.08-0.588,0.08c-0.269,0-0.521-0.035-0.753-0.113
		c-0.235-0.072-0.414-0.164-0.535-0.275c-0.122-0.108-0.2-0.227-0.229-0.346c-0.029-0.121-0.044-0.303-0.044-0.543l0.001-1.046
		c0-0.337,0.031-0.579,0.094-0.729c0.063-0.153,0.246-0.294,0.545-0.421c0.3-0.127,0.689-0.188,1.166-0.188
		c0.469-0.001,0.857,0.057,1.166,0.163c0.309,0.11,0.51,0.241,0.604,0.394c0.093,0.151,0.14,0.371,0.14,0.66L25.118,10.956z"/>
	<path fill="#231F20" d="M29.834,11.196l-1.601-0.002v-0.611c0-0.18-0.018-0.291-0.051-0.334c-0.034-0.046-0.11-0.066-0.226-0.066
		c-0.133,0-0.216,0.025-0.252,0.08c-0.034,0.053-0.053,0.17-0.053,0.35l-0.001,1.635c0,0.17,0.018,0.281,0.053,0.336
		c0.036,0.051,0.116,0.076,0.24,0.076c0.119,0,0.197-0.025,0.234-0.076c0.037-0.057,0.055-0.177,0.055-0.369v-0.441l1.602,0.002
		v0.137c0,0.363-0.045,0.621-0.134,0.771c-0.09,0.151-0.289,0.285-0.599,0.398c-0.307,0.111-0.686,0.172-1.138,0.172
		c-0.468,0-0.856-0.048-1.159-0.146c-0.304-0.097-0.506-0.229-0.604-0.401c-0.099-0.172-0.148-0.431-0.148-0.772v-1.025
		c-0.001-0.256,0.016-0.444,0.044-0.571c0.031-0.126,0.121-0.248,0.272-0.364c0.152-0.117,0.359-0.211,0.628-0.277
		c0.267-0.065,0.575-0.101,0.922-0.102c0.472,0.001,0.858,0.055,1.167,0.157c0.307,0.104,0.508,0.235,0.604,0.39
		c0.099,0.157,0.146,0.399,0.146,0.729V11.196L29.834,11.196z"/>
	<path fill="#231F20" d="M33.562,11.722c0,0.354-0.017,0.604-0.044,0.75c-0.029,0.146-0.121,0.28-0.273,0.403
		c-0.154,0.12-0.361,0.214-0.623,0.278c-0.263,0.063-0.563,0.098-0.912,0.098c-0.33,0-0.627-0.032-0.89-0.093
		c-0.263-0.062-0.474-0.152-0.633-0.276c-0.16-0.122-0.256-0.258-0.285-0.402c-0.03-0.145-0.045-0.396-0.046-0.758l0.001-0.603
		c0.001-0.354,0.015-0.604,0.044-0.751c0.028-0.146,0.12-0.28,0.273-0.401c0.154-0.12,0.361-0.216,0.621-0.28
		c0.263-0.063,0.565-0.098,0.914-0.098c0.328,0,0.627,0.031,0.889,0.094s0.474,0.151,0.633,0.276
		c0.16,0.123,0.253,0.256,0.286,0.399c0.028,0.146,0.044,0.399,0.045,0.761V11.722z M31.961,10.565c0-0.164-0.019-0.27-0.049-0.313
		c-0.033-0.045-0.097-0.069-0.197-0.069c-0.082,0-0.146,0.02-0.19,0.058c-0.045,0.034-0.067,0.146-0.067,0.325v1.646
		c0,0.203,0.017,0.329,0.045,0.377c0.029,0.049,0.098,0.071,0.203,0.072c0.109-0.001,0.181-0.027,0.211-0.084
		c0.029-0.057,0.045-0.188,0.045-0.393V10.565L31.961,10.565z"/>
	<path fill="#231F20" d="M38.586,9.665l-0.002,3.516h-1.397l-0.001-2.373l-0.559,2.373h-0.991l-0.587-2.322l-0.002,2.322
		l-1.397-0.002l0.002-3.514h2.067c0.058,0.213,0.123,0.462,0.189,0.748l0.227,0.895L36.5,9.665H38.586z"/>
	<path fill="#231F20" d="M38.725,9.667h1.609c0.438,0,0.771,0.021,1.008,0.059c0.234,0.039,0.41,0.098,0.527,0.17
		c0.116,0.074,0.196,0.162,0.238,0.27s0.062,0.27,0.062,0.486v0.307c0,0.227-0.043,0.391-0.123,0.492s-0.229,0.182-0.444,0.234
		c-0.218,0.058-0.501,0.084-0.851,0.082l-0.432,0.002v1.412h-1.6L38.725,9.667z M40.323,10.267v0.896
		c0.047,0.001,0.086,0.003,0.119,0.001c0.146,0.002,0.247-0.021,0.307-0.062c0.056-0.041,0.084-0.127,0.084-0.26v-0.29
		c0-0.118-0.033-0.196-0.1-0.233C40.668,10.285,40.53,10.267,40.323,10.267"/>
	<path fill="#231F20" d="M44.695,9.667l0.915,3.516h-1.637l-0.086-0.632h-0.573l-0.093,0.632l-1.656-0.002l0.816-3.515L44.695,9.667
		z M43.85,11.929c-0.081-0.397-0.161-0.894-0.245-1.479c-0.16,0.674-0.265,1.167-0.308,1.479H43.85z"/>
	<polygon fill="#231F20" points="48.95,9.668 48.95,13.185 47.549,13.183 46.717,11.585 46.715,13.183 45.377,13.183 45.377,9.667 
		46.713,9.667 47.612,11.251 47.612,9.667 	"/>
	<path fill="#231F20" d="M52.5,9.669l-1.168,2.241l-0.002,1.272h-1.481V11.91l-1.123-2.242l1.471,0.002
		c0.228,0.687,0.356,1.146,0.386,1.384c0.094-0.373,0.242-0.835,0.447-1.385H52.5z"/>
	<path fill="#EC1C24" d="M56.924,6.074c0.406,0.243,0.717,0.676,0.959,1.067c0.257,0.934,0.514,1.866,0.566,2.824
		c-0.162,0.636-0.257,1.298-0.393,1.935c-0.178-0.067-0.066-0.394-0.219-0.556l-0.119-0.216c-0.354,0.202-0.057,0.594-0.149,0.932
		c-0.271,0.475,0.218,1-0.136,1.444c-0.121,0.042-0.105-0.106-0.137-0.175c0.015-0.284,0.082-0.661-0.146-0.837
		c-0.229,0.08-0.105,0.352-0.217,0.514c-0.646,0.54-0.419,1.485-0.783,2.161c-0.339-0.068-0.107-0.516-0.107-0.743
		c0.121-0.487,0.056-1.04,0.177-1.526c-0.339,0.041-0.567,0.474-0.783,0.744c-0.394-0.041-0.435,0.524-0.798,0.512
		c-0.243,0.339-0.283,0.799-0.678,1.041c-0.106,0.298,0.055,0.758-0.379,0.894c-0.107-0.002-0.256,0.013-0.229-0.136
		c0.097-0.243,0.5-0.312,0.435-0.688c0.2-0.164,0.014-0.5,0.147-0.703c0.093-0.258,0.202-0.515,0.28-0.771
		c-0.188-0.108-0.311,0.201-0.483,0.024c-0.405,0.188-0.435,0.621-0.838,0.783c-0.202,0.188-0.202,0.566-0.517,0.635l-0.08-0.094
		c0.162-0.365,0.203-0.757,0.365-1.095c-0.16-0.095-0.365-0.026-0.566-0.026c-0.324,0.08-0.34,0.58-0.758,0.513
		c-0.594,0.555-0.92,1.311-1.203,2.026L49.92,16.76c-0.188-0.067-0.215-0.338-0.162-0.541c0.285-0.46,0.719-0.823,0.812-1.378
		c0.394-0.581,0.462-1.378,0.123-2.025c-0.216,0.055-0.161-0.312-0.394-0.149c-0.295,0.338-0.541,0.718-0.783,1.067
		c0.027-0.5,0.461-0.934,0.759-1.364c0.026-0.177,0.026-0.365-0.081-0.486c-0.068-0.095-0.203-0.04-0.298-0.054l-0.798,1.066h-0.161
		c0.026-0.933,1.474-1.229,1.001-2.283c-0.338,0.162-0.217-0.312-0.514-0.162c-0.313,0.189-0.637,0.445-0.987,0.46
		c-0.121-0.229,0.188-0.404,0.337-0.515c0.516-0.121,1.027-0.403,1.354-0.864c0.107-0.175,0.121-0.444,0.354-0.525
		c0.055-0.041-0.027-0.082-0.059-0.106c-0.699-0.057-1.442,0.053-2.094,0.322c-0.052-0.027-0.134-0.056-0.146-0.136
		c0.002-0.188,0.258-0.217,0.404-0.257c0.557-0.081,1.056-0.256,1.557-0.433c0.514,0.082,0.675-0.607,1.202-0.539l0.079-0.067
		c-0.066-0.312-0.555-0.11-0.473-0.42c0.229-0.176,0.596-0.177,0.879-0.189c0.188-0.216,0.474-0.324,0.607-0.54
		c-0.148-0.054-0.365-0.029-0.514-0.163c0.445-0.459,1.257-0.297,1.757-0.729c0.663-0.108,1.338-0.31,2.067-0.229L56.924,6.074z
		 M49.532,11.099c0,0.229-0.271,0.353-0.459,0.474c-0.055-0.026-0.205-0.015-0.148-0.121C49.112,11.301,49.262,11.056,49.532,11.099
		"/>
</g>
</svg>
