<?xml version="1.0" encoding="utf-8"?>
<!-- Generator: Adobe Illustrator 15.1.0, SVG Export Plug-In . SVG Version: 6.00 Build 0)  -->
<!DOCTYPE svg PUBLIC "-//W3C//DTD SVG 1.1//EN" "http://www.w3.org/Graphics/SVG/1.1/DTD/svg11.dtd">
<svg version="1.1" id="Layer_1" xmlns="http://www.w3.org/2000/svg" xmlns:xlink="http://www.w3.org/1999/xlink" x="0px" y="0px"
	 width="58.738px" height="10.973px" viewBox="0 0 58.738 10.973" enable-background="new 0 0 58.738 10.973" xml:space="preserve">
<g>
	<g>
		<path fill="#C4161C" d="M15.124,1.459c0.342,0,0.671,0.396,1.021,0.814c0.312,0.377,1.636,2.461,1.758,2.695
			s0.178,0.316,0.267,0.316s0.159,0.004,0.358-0.469c0.405-0.949,1.349-2.27,2.053-2.961c0.234-0.23,0.323-0.395,0.582-0.396
			c0.762-0.01,1.917,0,2.012,0c0.096,0,0.224,0.043,0.224,0.186c0,0.145-0.007,0.35-0.007,0.582c0,0.234-0.26,0.305-0.377,0.305
			c-0.119,0-0.222,0.068-0.321,0.17c-0.173,0.172-0.165,0.354-0.165,0.688s0.001,4.055-0.002,4.52
			c-0.003,0.363,0.38,0.447,0.557,0.477c0.177,0.025,0.376,0.096,0.375,0.23c0,0.096-0.001,0.562-0.001,0.611
			c0,0.055-0.032,0.307-0.271,0.307c-0.241,0-2.606,0-2.744,0S20.11,9.46,20.11,9.389c0-0.072,0-0.658,0-0.779
			c0-0.123,0.093-0.211,0.205-0.211c0.113,0,0.019-0.004,0.146-0.004s0.441-0.104,0.454-0.566c0.004-0.152,0.003-3.26,0.004-3.398
			c0-0.082-0.001-0.312-0.154-0.312c-0.155,0-0.179,0.102-0.298,0.271c-0.592,0.854-1.3,2.479-1.578,3.4
			c-0.073,0.238-0.117,0.379-0.129,0.404c-0.058,0.145-0.164,0.281-0.307,0.33C18.355,8.557,18.027,8.6,17.784,8.44
			c-0.123-0.082-0.152-0.188-0.182-0.312c-0.025-0.111-0.059-0.215-0.084-0.303c-0.697-2.338-1.837-3.46-1.906-3.576
			c-0.029-0.053-0.111-0.139-0.166-0.117c-0.033,0.01-0.045,0.047-0.045,0.135s0.001,3.479,0.001,3.689s0.21,0.377,0.366,0.412
			c0.154,0.038,0.42,0.053,0.418,0.232c-0.001,0.096-0.002,0.559-0.002,0.713c0,0.156-0.137,0.203-0.225,0.203
			s-2.537-0.004-2.744-0.004c-0.125-0.002-0.251-0.068-0.252-0.176c0-0.037,0.001-0.629,0.001-0.766
			c0-0.135,0.095-0.188,0.163-0.205c0.082-0.01,0.161-0.01,0.24-0.01s0.441-0.031,0.443-0.566c0.001-0.658,0-4.365,0-4.742
			s-0.494-0.502-0.552-0.502s-0.132-0.002-0.209-0.002c-0.075,0-0.115-0.078-0.14-0.121L12.907,1.63
			c0.003-0.092,0.062-0.172,0.135-0.168C13.041,1.463,14.782,1.459,15.124,1.459z"/>
		<path fill="#C4161C" d="M56.15,1.576c0.053,0,0.313-0.014,0.313,0.271c0,0.281,0,1,0,1.145c0,0.143,0.088,0.207,0.2,0.207
			S56.993,3.2,57.137,3.2c0.143,0,0.344,0.033,0.344,0.18c0,0.146-0.007,0.502-0.006,0.625c0.003,0.17-0.091,0.236-0.18,0.236
			c-0.088,0-0.504,0.002-0.592,0.002c-0.089,0-0.238,0.033-0.238,0.178c0,0.143-0.002,2.805-0.002,3.441
			c0,0.64,0.801,0.604,0.896,0.604c0.096,0,0.186,0.088,0.186,0.232c0,0.144-0.023,0.502-0.023,0.604
			c0,0.104-0.083,0.211-0.208,0.232c-0.125,0.02-0.256,0.043-0.329,0.043c-0.102,0-0.041,0.002-0.786-0.004
			c-0.811-0.008-1.338-0.676-1.341-1.582c-0.001-0.355-0.003-3.414-0.002-3.506c0.002-0.156-0.036-0.242-0.131-0.242
			s-0.229,0-0.369,0c-0.141,0-0.178-0.043-0.178-0.119s-0.004-0.781-0.004-0.818s-0.001-0.145,0.134-0.145s0.263-0.004,0.361-0.004
			c0.103,0,0.231-0.076,0.231-0.262c0-0.182-0.002-1.084-0.002-1.164s0.094-0.154,0.149-0.156
			C55.155,1.574,56.099,1.576,56.15,1.576z"/>
		<path fill="#C4161C" d="M35.849,4.43c0.003,0.568-0.175,0.545-0.224,0.545s-0.832,0.004-1.061,0.004
			c-0.229,0-0.269-0.254-0.287-0.312c-0.02-0.06-0.194-0.381-0.694-0.381s-0.654,0.359-0.654,0.541c0,0.178,0.002,2.938,0.002,3.207
			c0,0.299,0.135,0.385,0.262,0.438c0.126,0.053,0.303,0.096,0.466,0.096c0.161,0,0.21,0.078,0.21,0.158s-0.007,0.582-0.007,0.633
			s-0.098,0.18-0.224,0.18s-2.646,0-2.71,0c-0.072,0-0.183-0.074-0.183-0.127c0-0.055-0.005-0.627-0.005-0.725
			c0-0.094,0.038-0.139,0.098-0.15c0.082-0.005,0.114-0.002,0.19-0.002s0.453-0.059,0.453-0.438c0-0.381,0.004-3.002,0.002-3.432
			c-0.002-0.398-0.252-0.479-0.374-0.475c-0.068,0.002-0.154-0.006-0.213-0.006c-0.058,0-0.156-0.023-0.156-0.131s0-0.641,0-0.721
			s0.035-0.133,0.125-0.133s2.188-0.002,2.188-0.002c0.479-0.074,0.563-0.113,1.507-0.088C35.448,3.137,35.847,4.045,35.849,4.43z"
			/>
		<path fill="#C4161C" d="M39.712,3.143c1.108-0.016,1.753,0.451,1.832,0.451s0.641-0.459,2.256-0.453
			c2.287,0.01,3.091,1.75,3.091,3.318c0,1.566-0.206,1.781-0.081,1.893c0.216,0.197,0.569,0.068,0.561,0.285
			c-0.01,0.166-0.01,0.742-0.01,0.775c0,0.035-0.102,0.164-0.18,0.164c-0.079,0-1.71-0.01-1.979-0.01
			c-0.269,0-0.221-0.164-0.146-0.385c0.24-0.734,0.246-1.855,0.249-2.742c0.007-1.967-0.915-2.072-1.843-2.158
			c-0.56-0.053-0.944,0.176-0.987,0.242c-0.043,0.068-0.069,0.117-0.055,0.154c0.105,0.264,0.334,0.973,0.333,1.867
			c-0.001,0.594-0.154,1.146-0.151,1.562c0.003,0.469,0.616,0.339,0.615,0.584c-0.001,0.178-0.005,0.505-0.005,0.604
			c0,0.098-0.125,0.256-0.234,0.256s-1.908,0-2.051,0c-0.144,0-0.138-0.119-0.117-0.285c0.021-0.168,0.298-1.389,0.312-1.545
			c0.018-0.156,0.047-0.711,0.044-0.953c-0.029-1.902-0.271-2.396-1.869-2.5c-0.526-0.035-0.79,0.131-0.794,0.26
			c-0.005,0.156,0.004,3.504,0.004,3.631c0,0.129,0.167,0.279,0.371,0.344c0.204,0.062,0.353,0.1,0.353,0.207
			c0,0.105,0.002,0.457,0.002,0.582s-0.208,0.242-0.287,0.242c-0.078,0-2.306,0-2.431,0c-0.126,0-0.241-0.1-0.241-0.166
			c0-0.068,0.003-0.604,0.003-0.684c0-0.076,0.051-0.137,0.249-0.137s0.45-0.293,0.448-0.408c-0.004-0.178,0.001-3.416,0.001-3.562
			c0-0.148-0.178-0.365-0.474-0.369c-0.056,0-0.097-0.006-0.146-0.006c-0.177,0.002-0.226-0.123-0.226-0.188
			c0-0.062,0.001-0.521,0.001-0.582c0-0.059,0.047-0.215,0.125-0.215c0.08,0,2.406-0.002,2.534-0.002
			C39.044,3.148,39.169,3.15,39.712,3.143z"/>
		<path fill="#C4161C" d="M26.214,2.93c2.354-0.002,3.12,1.271,3.125,2.605c0.002,0.506,0,1.73,0,2.184s0.122,0.535,0.247,0.652
			c0.126,0.119,0.314,0.184,0.446,0.184c0.13,0,0.282,0.141,0.282,0.27c0,0.125-0.006,0.338-0.006,0.436
			c0,0.1-0.032,0.275-0.33,0.273c-0.19,0-3.405,0.002-3.897,0.002c-0.699,0-2.738-0.232-2.736-2.273
			c0.001-1.887,2.394-2.166,3.174-2.168c0.289,0,0.447-0.002,0.664,0.004c0.276,0.008,0.378-0.041,0.378-0.146
			c0-0.084-0.077-0.291-0.327-0.525c-0.25-0.232-0.71-0.334-1.345-0.334c-0.636,0-0.84,0.133-0.939,0.227
			c-0.103,0.098-0.2,0.199-0.198,0.4c0.001,0.068-0.049,0.207-0.099,0.221c-0.049,0.018-0.257-0.023-0.465-0.01
			c-0.207,0.017-0.35,0.02-0.477-0.014c-0.126-0.029-0.155-0.49-0.155-0.809c0-0.312,0.035-0.646,0.167-0.754
			C23.959,3.225,24.407,2.93,26.214,2.93z M27.567,6.445c-0.153,0-0.949-0.021-1.54,0.021c-0.647,0.047-1.093,0.365-1.093,0.932
			c-0.001,0.641,0.621,0.904,1.108,0.9c0.28,0,1.467-0.002,1.595-0.002c0.126,0,0.158-0.102,0.158-0.236
			c0-0.061-0.004-1.385-0.004-1.441C27.791,6.559,27.722,6.445,27.567,6.445z"/>
		<path fill="#C4161C" d="M50.788,4.211c-0.988,0.002-1.851,0.617-1.854,1.99c-0.002,0.842,0.342,2.268,1.928,2.26
			c1.622-0.006,1.764-1.609,1.771-2.227C52.639,5.951,52.483,4.207,50.788,4.211z M47.313,6.232
			c0.013-2.471,2.243-3.145,3.567-3.146c1.91,0,3.349,1.008,3.35,3.078c0,1.969-1.562,3.402-3.446,3.408
			C48.752,9.576,47.305,8.213,47.313,6.232z"/>
		<path fill="#C4161C" d="M57.131,1.906c0-0.414,0.361-0.75,0.804-0.75c0.444,0,0.807,0.336,0.807,0.75
			c0,0.416-0.36,0.752-0.807,0.752C57.492,2.658,57.131,2.323,57.131,1.906z M57.258,1.906c0,0.352,0.305,0.631,0.677,0.631
			c0.376,0,0.675-0.279,0.675-0.631s-0.299-0.635-0.675-0.635C57.562,1.273,57.258,1.557,57.258,1.906z M57.814,1.994v0.307H57.58
			V1.51h0.406c0.216,0,0.339,0.088,0.339,0.24c0,0.094-0.056,0.166-0.154,0.205l0.17,0.346h-0.258l-0.135-0.307H57.814z
			 M57.814,1.668v0.176h0.119c0.11,0,0.152-0.023,0.152-0.088c0-0.065-0.042-0.088-0.161-0.088H57.814z"/>
	</g>
	<g>
		<circle fill="#C4161C" cx="5.487" cy="5.486" r="5.486"/>
		<polygon fill="#FFFFFF" points="8.744,6.594 7.51,3.529 6.524,4.973 4.86,1.285 2.124,9.441 4.865,4.67 6.404,7.41 7.775,5.338 		
			"/>
	</g>
</g>
</svg>
