<?xml version="1.0" encoding="utf-8"?>
<!-- Generator: Adobe Illustrator 15.1.0, SVG Export Plug-In . SVG Version: 6.00 Build 0)  -->
<!DOCTYPE svg PUBLIC "-//W3C//DTD SVG 1.1//EN" "http://www.w3.org/Graphics/SVG/1.1/DTD/svg11.dtd">
<svg version="1.1" id="Layer_1" xmlns="http://www.w3.org/2000/svg" xmlns:xlink="http://www.w3.org/1999/xlink" x="0px" y="0px"
	 width="62.373px" height="17.003px" viewBox="0 0 62.373 17.003" enable-background="new 0 0 62.373 17.003" xml:space="preserve">
<g>
	<path fill="#231F20" d="M11.732,0.001l-1.389,3.804c-0.259,0.71-0.469,1.401-0.572,2.099c-0.079-0.65-0.137-1.149-0.214-1.466
		l-1.13-4.437L4.103,0L0,11.27l3.351,0.002l1.918-5.281c0.259-0.707,0.47-1.388,0.587-2.085C5.917,4.675,5.994,5.157,6.057,5.37
		l1.567,5.902l3.349,0.001l4.11-11.271L11.732,0.001z"/>
	<path fill="#231F20" d="M22.372,2.048l-4.253-0.001c-1.518,0-2.543,0.805-3.162,2.496l-1.549,4.25
		c-0.602,1.658-0.134,2.481,1.346,2.481l4.25,0.002c1.487,0,2.536-0.823,3.139-2.481l1.546-4.249
		C24.309,2.843,23.897,2.049,22.372,2.048 M19.279,8.759h-2.967l1.53-4.215l2.971,0.001L19.279,8.759z"/>
	<path fill="#231F20" d="M26.417,7.845h2.962l-1.245,3.433h2.832l1.135-3.122c0.295-0.818,0.256-1.208-0.534-1.536
		c0.94-0.282,1.34-0.677,1.644-1.519l0.438-1.169c0.48-1.296,0-1.882-1.492-1.882l-6.476-0.001l-3.368,9.227l2.858,0.001
		L26.417,7.845z M27.618,4.547l2.955,0.001l-0.432,1.198l-2.953-0.001L27.618,4.547z"/>
	<path fill="#231F20" d="M35.375,11.281l7.155,0.002l1.117-3.077l-6.683-0.001l1.873-5.147l6.699,0.001l1.114-3.047L39.38,0.01
		c-1.855,0-3.369,1.054-4.094,3.047l-1.875,5.147C32.676,10.251,33.313,11.281,35.375,11.281"/>
	<path fill="#231F20" d="M43.97,11.283h2.864l1.358-3.717h3.152l-1.361,3.717h2.882l2.663-7.322
		c0.427-1.148-0.049-1.905-1.366-1.905l-4.769-0.001c-1.326,0-2.334,0.755-2.761,1.904L43.97,11.283z M49.28,4.552l3.15,0.001
		l-0.408,1.152h-3.15L49.28,4.552z"/>
	<polygon fill="#231F20" points="57.942,8.769 60.39,2.058 57.338,2.058 53.974,11.285 61.461,11.287 62.373,8.771 	"/>
	<path fill="#231F20" d="M27.743,14.802c0.307-0.18,0.465-0.297,0.574-0.598l0.217-0.596c0.215-0.585,0.039-0.835-0.578-0.835
		l-3.19-0.002l-1.542,4.222h3.181c0.648,0.002,1.01-0.313,1.24-0.949l0.213-0.592C27.987,15.103,28,14.917,27.743,14.802
		 M26.41,15.845l-1.458-0.002l0.208-0.553l1.457,0.002L26.41,15.845z M26.928,14.44h-1.463l0.19-0.522h1.459L26.928,14.44z"/>
	<polygon fill="#231F20" points="29.337,12.776 27.798,16.996 29.115,16.998 30.649,12.776 	"/>
	<polygon fill="#231F20" points="35.526,12.778 33.974,12.777 32.196,14.391 31.896,14.391 32.483,12.777 31.187,12.776 
		29.648,16.998 30.946,16.998 31.533,15.39 31.835,15.39 32.444,16.998 34.084,16.998 33.17,14.848 	"/>
	<polygon fill="#231F20" points="36.147,15.36 38.336,15.36 38.683,14.406 36.492,14.406 36.669,13.919 38.867,13.919 
		39.285,12.779 35.769,12.778 34.229,16.998 37.731,17 38.151,15.848 35.972,15.848 	"/>
	<path fill="#231F20" d="M42.198,14.387h-1.756l0.177-0.468l2.43,0.002l0.42-1.144l-2.479-0.001c-0.841,0-1.324,0.21-1.548,0.831
		l-0.373,1.011c-0.243,0.687,0.146,0.771,0.974,0.771H41.5l-0.176,0.456h-2.728l-0.421,1.149h3.084c0.593,0,1.036-0.291,1.204-0.756
		l0.375-1.035C43.039,14.643,42.839,14.387,42.198,14.387"/>
	<path fill="#231F20" d="M47.815,13.646c0.224-0.622,0.041-0.865-0.545-0.865h-3.058L42.673,17h1.319l0.502-1.369h1.765
		c0.562,0,0.934-0.27,1.135-0.82L47.815,13.646z M46.121,14.656l-1.294-0.002l0.265-0.73h1.291L46.121,14.656z"/>
	<path fill="#231F20" d="M51.467,12.783l-1.94-0.002c-0.694,0-1.166,0.366-1.45,1.143l-0.703,1.945
		C47.09,16.619,47.308,17,47.983,17h1.939c0.678,0.002,1.159-0.381,1.438-1.133l0.707-1.943
		C52.349,13.144,52.165,12.783,51.467,12.783 M50.054,15.851l-1.359-0.001l0.705-1.929h1.352L50.054,15.851z"/>
	<path fill="#231F20" d="M55.938,12.783h-2.961l-1.539,4.219l1.309,0.002l0.57-1.569h1.354l-0.571,1.569h1.297l0.519-1.43
		c0.14-0.371,0.119-0.55-0.244-0.701c0.431-0.129,0.612-0.309,0.75-0.695l0.201-0.532C56.842,13.048,56.623,12.783,55.938,12.783
		 M55.017,14.468h-1.351l0.196-0.545h1.354L55.017,14.468z"/>
	<polygon fill="#231F20" points="56.865,13.923 58.159,13.923 57.035,17.001 58.424,17.003 59.543,13.925 60.78,13.925 
		61.201,12.785 57.28,12.783 	"/>
</g>
</svg>
